<svg width="118" height="132" viewBox="0 0 118 132" fill="none" xmlns="http://www.w3.org/2000/svg">
<path d="M1.79855 131.226C0.319025 130.39 -0.102606 129.118 0.0200485 127.469C1.13927 112.582 7.82397 101.214 21.408 94.5366C25.6549 92.4515 30.3618 91.2709 34.8923 89.7761C36.1265 89.3698 36.9008 88.7795 37.4374 87.5836C38.5183 85.1765 39.7678 82.8538 40.7874 80.8146C39.0472 78.1086 37.4604 75.6018 35.8046 73.1334C35.5899 72.8114 34.9996 72.6657 34.5627 72.5891C33.1062 72.3131 31.5346 72.3744 30.2084 71.8225C27.2571 70.6036 25.8312 68.1582 25.6472 64.9998C25.5859 63.9803 25.6396 62.953 25.6396 61.9258C21.822 60.2623 20.3807 57.3032 20.4804 53.3016C20.6414 47.2072 20.3424 41.0822 20.7717 35.0031C21.454 25.436 25.5093 17.2718 32.4929 10.6944C41.0174 2.66823 51.2284 -0.804437 62.8576 0.353117C73.4672 1.41101 82.1681 6.25588 88.8681 14.5351C94.7325 21.7717 97.3849 30.1659 97.3466 39.4493C97.3236 44.2252 97.3466 49.0087 97.3389 53.7846C97.3312 59.1584 94.1959 62.3167 88.8527 62.3244C87.6185 62.3244 86.3843 62.3244 84.9508 62.3244C84.2225 69.2391 81.7694 75.3871 76.8479 80.4083C78.2508 83.2217 79.5923 85.9738 81.0182 88.6875C81.2175 89.0631 81.7771 89.3238 82.2294 89.4771C85.8937 90.7343 89.5963 91.8842 93.253 93.1874C103.985 97.005 111.023 104.602 115.224 115.005C116.833 118.991 117.585 123.176 117.815 127.469C117.907 129.118 117.508 130.39 116.028 131.226C77.9518 131.226 39.8752 131.226 1.79855 131.226ZM81.8308 43.6886C81.1255 43.5659 80.5966 43.4739 80.0599 43.3819C77.9212 42.9986 75.7593 42.7073 73.6512 42.2014C66.0466 40.3616 59.3466 36.7739 53.5205 31.5381C53.1526 31.2084 52.5546 30.9171 52.087 30.9631C48.7907 31.2544 45.8163 32.4273 43.1255 34.3745C40.4041 36.3446 38.6179 39.1273 36.6631 41.7568C36.2952 42.2474 36.0576 43.0063 36.1112 43.6119C36.6018 49.2157 37.1231 54.8195 37.7441 60.4156C38.0047 62.769 38.5413 65.0842 38.9629 67.4606C41.3163 67.4606 43.4475 67.4376 45.571 67.4759C46.2532 67.4912 46.5982 67.2919 46.9201 66.648C48.3383 63.8499 50.6918 62.4394 53.8118 62.3474C55.5213 62.3014 57.2308 62.2938 58.9327 62.3474C63.2869 62.4931 66.5832 65.8354 66.5756 70.044C66.5679 74.2373 63.2409 77.5643 58.8867 77.6869C57.3535 77.7329 55.8126 77.6946 54.2794 77.7022C50.8988 77.7176 48.3767 76.2994 46.8282 73.2407C46.6978 72.98 46.3989 72.6197 46.1689 72.6121C44.628 72.5584 43.0872 72.5814 41.3623 72.5814C43.7311 76.4374 46.6672 79.3044 50.5615 81.0216C62.7503 86.4261 75.4374 79.4577 78.8027 66.924C79.9449 62.6694 80.3436 58.2001 80.9185 53.8076C81.3555 50.4806 81.5318 47.1152 81.8308 43.6886ZM36.9161 94.4676C33.5814 95.5868 30.5304 96.6677 27.4411 97.626C19.4072 100.102 13.5197 105.185 9.42615 112.421C7.04971 116.622 5.6392 121.137 5.2789 126.036C21.5996 126.036 37.8207 126.036 54.4174 126.036C47.5104 115.971 40.7184 106.097 36.9161 94.4676ZM63.5629 126.021C80.0293 126.021 96.2657 126.021 112.586 126.021C112.441 124.955 112.372 123.974 112.18 123.023C109.988 112.222 104.376 103.889 94.2419 99.1515C90.3246 97.327 86.0623 96.2461 81.9611 94.8279C81.6544 94.7206 81.3325 94.6669 81.3632 94.6746C78.6494 100.171 76.25 105.645 73.3139 110.811C70.3702 115.986 66.9052 120.854 63.5629 126.021ZM81.8154 38.4144C81.8614 38.3224 81.9228 38.2534 81.9304 38.1691C82.8427 29.3073 77.2466 20.2692 68.9444 16.9575C64.9274 15.3553 60.7725 15.3553 56.5945 15.478C48.4073 15.708 42.2899 19.4489 38.296 26.5859C37.0771 28.7707 36.2875 31.1241 36.1035 33.6615C36.2722 33.6615 36.3335 33.6769 36.3565 33.6615C36.5405 33.4852 36.7322 33.3166 36.9008 33.1249C41.0174 28.7324 46.1076 26.3713 52.0717 25.758C53.8655 25.574 55.2377 26.0493 56.5639 27.2988C63.6549 34.0065 72.1794 37.4792 81.8154 38.4144ZM91.9651 35.8923C91.2828 20.8901 78.2124 5.3283 59.04 5.25164C39.9212 5.16731 26.6055 20.5298 25.8542 35.8847C27.4564 35.8847 29.0586 35.8847 30.7067 35.8847C30.7451 35.4017 30.7757 34.9877 30.8217 34.5738C31.9409 23.6882 37.5447 16.1296 47.6638 11.99C52.5853 9.98151 57.7904 10.1425 62.9419 10.4491C73.8965 11.1007 83.2873 18.828 86.093 29.4223C86.6526 31.5381 86.9056 33.7382 87.2966 35.9077C88.8374 35.8923 90.4012 35.8923 91.9651 35.8923ZM58.764 99.8874C58.5723 100.002 58.4497 100.048 58.3654 100.133C55.6057 103.038 52.8689 105.966 50.0785 108.849C49.4729 109.477 49.8025 109.876 50.1398 110.382C52.8996 114.583 55.644 118.792 58.4037 122.993C58.5494 123.222 58.7564 123.406 58.9327 123.606C61.5621 119.666 64.1608 115.817 66.6982 111.938C68.3388 109.439 68.3004 109.409 66.1693 107.277C63.7009 104.809 61.2324 102.348 58.764 99.8874ZM70.9375 104.487C70.9221 104.502 71.0142 104.456 71.0448 104.387C72.8386 100.255 74.6325 96.1235 76.411 91.9839C76.5029 91.7615 76.5949 91.4472 76.5106 91.2633C75.4297 89.0325 74.3105 86.8247 73.1453 84.4866C69.4196 88.4345 65.832 92.2215 62.3593 95.9011C65.2877 98.8372 68.1088 101.658 70.9375 104.487ZM46.7515 104.947C49.7182 101.812 52.363 99.0058 54.7624 96.4684C51.0981 92.8041 47.5641 89.2778 44.0531 85.7668C43.2712 87.3306 42.3743 89.0708 41.531 90.834C41.3777 91.1483 41.2704 91.6082 41.3854 91.8995C43.1025 96.1465 44.8657 100.386 46.7515 104.947ZM31.9869 57.1959C31.5577 51.7608 31.136 46.4713 30.722 41.1665C29.0279 41.1665 27.3567 41.1665 25.6319 41.1665C25.6319 45.6817 25.6012 50.1126 25.6472 54.5282C25.6625 56.0997 26.6515 57.0886 28.1923 57.1806C29.4189 57.2496 30.6454 57.1959 31.9869 57.1959ZM87.1202 41.1128C86.6986 46.4943 86.277 51.7838 85.8477 57.2112C86.9363 57.2112 87.9865 57.2189 89.0367 57.2112C91.2675 57.1882 92.2027 56.253 92.2027 53.9916C92.2104 50.0359 92.2104 46.0727 92.2027 42.1171C92.2027 41.7951 92.1491 41.4654 92.1184 41.1128C90.4319 41.1128 88.8221 41.1128 87.1202 41.1128ZM56.2266 72.5661C57.1235 72.5661 58.0204 72.6197 58.9096 72.5584C60.3968 72.4588 61.4547 71.3625 61.4471 70.021C61.4471 68.6718 60.3892 67.5526 58.902 67.4912C57.2001 67.4222 55.4906 67.4222 53.7811 67.4912C52.294 67.5526 51.2361 68.6795 51.2437 70.0287C51.2437 71.3779 52.3016 72.4588 53.7888 72.5661C54.6091 72.6121 55.4217 72.5661 56.2266 72.5661ZM58.7257 92.2675C60.0672 90.8493 61.4624 89.3698 62.9956 87.7369C59.7912 87.7369 56.8628 87.7369 54.2104 87.7369C55.5673 89.1015 57.1158 90.65 58.7257 92.2675ZM30.883 62.3857C30.3694 65.1608 30.929 67.6906 33.6964 67.2843C33.5584 66.4947 33.4205 65.6974 33.2748 64.9078C33.1215 64.0799 32.9682 63.2443 32.8072 62.3934C32.1173 62.3857 31.4963 62.3857 30.883 62.3857Z" fill="#4D4D4D"/>
<path d="M81.8308 43.6886C81.5318 47.1152 81.3555 50.4806 80.9185 53.8076C80.3436 58.2002 79.9449 62.6694 78.8027 66.924C75.4374 79.4654 62.7503 86.4261 50.5615 81.0216C46.6748 79.2968 43.7311 76.4374 41.3623 72.5814C43.0872 72.5814 44.628 72.5508 46.1689 72.6121C46.3989 72.6197 46.6978 72.98 46.8282 73.2407C48.3767 76.2994 50.8988 77.7099 54.2795 77.7022C55.8126 77.6946 57.3535 77.7329 58.8867 77.6869C63.2409 77.5643 66.5679 74.2373 66.5756 70.044C66.5832 65.8354 63.2792 62.4931 58.9327 62.3474C57.2308 62.2938 55.5137 62.2938 53.8118 62.3474C50.6918 62.4317 48.3383 63.8423 46.9201 66.648C46.5905 67.2919 46.2532 67.4912 45.571 67.4759C43.4399 67.4376 41.3087 67.4606 38.9629 67.4606C38.5413 65.0918 38.0047 62.769 37.7441 60.4156C37.1231 54.8195 36.6018 49.2157 36.1112 43.6119C36.0576 43.0063 36.2952 42.2474 36.6631 41.7568C38.6179 39.1273 40.4041 36.3446 43.1255 34.3745C45.8163 32.4273 48.7907 31.2544 52.087 30.9631C52.547 30.9248 53.1526 31.2084 53.5205 31.5381C59.339 36.7816 66.0389 40.3616 73.6512 42.2014C75.7593 42.715 77.9212 42.9986 80.0599 43.3819C80.5966 43.4816 81.1332 43.5659 81.8308 43.6886Z" fill="white"/>
<path d="M36.9161 94.4677C40.7184 106.105 47.5104 115.971 54.4251 126.036C37.8284 126.036 21.5996 126.036 5.2865 126.036C5.6468 121.137 7.05735 116.622 9.43379 112.421C13.5274 105.185 19.4148 100.102 27.4487 97.626C30.5381 96.6678 33.5814 95.5792 36.9161 94.4677Z" fill="white"/>
<path d="M63.5628 126.021C66.9052 120.854 70.3702 115.986 73.3062 110.811C76.2423 105.645 78.6417 100.171 81.3555 94.6746C81.3325 94.6669 81.6544 94.7206 81.9534 94.8279C86.0623 96.2385 90.3246 97.3193 94.2342 99.1515C104.369 103.881 109.98 112.222 112.172 123.023C112.364 123.981 112.441 124.963 112.579 126.021C96.2657 126.021 80.0292 126.021 63.5628 126.021ZM102.076 119.42C104.553 119.413 105.71 117.404 104.767 115.549C103.088 112.237 100.758 109.432 97.8525 107.116C96.5799 106.104 95.1464 106.204 94.1882 107.3C93.2376 108.389 93.2759 109.876 94.5102 110.934C96.9019 112.981 98.8337 115.365 100.421 118.079C100.827 118.761 101.731 119.152 102.076 119.42ZM87.0742 106.618C88.4157 106.626 89.6193 105.438 89.6346 104.096C89.6423 102.754 88.4541 101.551 87.1126 101.536C85.771 101.528 84.5675 102.716 84.5521 104.058C84.5368 105.399 85.7327 106.61 87.0742 106.618Z" fill="white"/>
<path d="M81.8154 38.4144C72.187 37.4792 63.6549 34.0065 56.5792 27.3065C55.253 26.0493 53.8808 25.574 52.087 25.7656C46.1229 26.3789 41.0327 28.74 36.9161 33.1326C36.7398 33.3166 36.5558 33.4929 36.3719 33.6692C36.3489 33.6922 36.2952 33.6692 36.1189 33.6692C36.3028 31.1241 37.0924 28.7707 38.3113 26.5936C42.3053 19.4566 48.4227 15.7079 56.6099 15.4856C60.7878 15.3706 64.9427 15.363 68.9596 16.9652C77.2618 20.2768 82.858 29.3226 81.9457 38.1768C81.9227 38.2534 81.8537 38.3224 81.8154 38.4144Z" fill="#FF931E"/>
<path d="M58.7639 99.8874C61.2324 102.348 63.7008 104.809 66.1616 107.27C68.3004 109.401 68.331 109.431 66.6905 111.931C64.1454 115.81 61.5544 119.658 58.9249 123.598C58.7486 123.399 58.5493 123.207 58.396 122.985C55.6363 118.784 52.8918 114.575 50.1321 110.374C49.7948 109.868 49.4652 109.47 50.0708 108.841C52.8612 105.967 55.5979 103.038 58.3577 100.125C58.4497 100.048 58.5723 100.002 58.7639 99.8874Z" fill="#FF931E"/>
<path d="M31.9869 57.1959C30.6531 57.1959 29.4189 57.2496 28.1923 57.1806C26.6515 57.0886 25.6626 56.0997 25.6472 54.5282C25.6012 50.1049 25.6319 45.6817 25.6319 41.1665C27.3568 41.1665 29.0279 41.1665 30.7221 41.1665C31.136 46.4713 31.5577 51.7608 31.9869 57.1959Z" fill="#FF931E"/>
<path d="M87.1202 41.1128C88.8297 41.1128 90.4319 41.1128 92.1261 41.1128C92.1567 41.4654 92.2104 41.7951 92.2104 42.117C92.218 46.0726 92.218 50.0359 92.2104 53.9915C92.2027 56.253 91.2675 57.1882 89.0443 57.2112C87.9941 57.2189 86.9362 57.2112 85.8553 57.2112C86.277 51.7838 86.6909 46.4943 87.1202 41.1128Z" fill="#FF931E"/>
<path d="M56.2265 72.5661C55.414 72.5661 54.6014 72.6121 53.7965 72.5584C52.3093 72.4511 51.2514 71.3702 51.2514 70.021C51.2514 68.6718 52.3016 67.5526 53.7888 67.4836C55.4906 67.4146 57.2001 67.407 58.9096 67.4836C60.4045 67.5449 61.4547 68.6642 61.4547 70.0134C61.4547 71.3626 60.4045 72.4511 58.9173 72.5508C58.028 72.6121 57.1235 72.5661 56.2265 72.5661Z" fill="#FF931E"/>
<path d="M58.7257 92.2675C57.1158 90.65 55.5673 89.1015 54.2104 87.7369C56.8705 87.7369 59.7912 87.7369 62.9956 87.7369C61.4701 89.3698 60.0672 90.8493 58.7257 92.2675Z" fill="white"/>
<path d="M30.883 62.3857C31.4963 62.3857 32.1172 62.3857 32.8148 62.3857C32.9758 63.2443 33.1291 64.0722 33.2825 64.9002C33.4281 65.6898 33.5661 66.487 33.7041 67.2766C30.929 67.6906 30.3694 65.1608 30.883 62.3857Z" fill="white"/>
<path d="M102.076 119.42C101.732 119.152 100.827 118.761 100.428 118.079C98.8415 115.357 96.9096 112.981 94.5179 110.934C93.2837 109.876 93.2377 108.389 94.1959 107.3C95.1542 106.204 96.5877 106.105 97.8602 107.116C100.766 109.424 103.096 112.237 104.775 115.549C105.718 117.412 104.553 119.42 102.076 119.42Z" fill="#4D4D4D"/>
<path d="M87.0742 106.618C85.7327 106.61 84.5368 105.399 84.5521 104.058C84.5598 102.716 85.771 101.52 87.1126 101.536C88.4541 101.543 89.65 102.754 89.6347 104.096C89.6193 105.438 88.4081 106.626 87.0742 106.618Z" fill="#4D4D4D"/>
</svg>
