<svg width="28" height="20" viewBox="0 0 28 20" fill="none" xmlns="http://www.w3.org/2000/svg">
<path d="M13.667 0.460571H13.8181C15.2135 0.465664 22.2838 0.516591 24.1902 1.02925C24.7665 1.18571 25.2916 1.49069 25.7132 1.91369C26.1347 2.3367 26.4378 2.86293 26.5922 3.43978C26.7637 4.08485 26.8842 4.93873 26.9657 5.81976L26.9827 5.9963L27.02 6.43767L27.0336 6.61421C27.1439 8.16578 27.1575 9.61889 27.1592 9.93633V10.0636C27.1575 10.393 27.1422 11.9445 27.02 13.5606L27.0064 13.7389L26.9911 13.9154C26.9063 14.8864 26.7807 15.8506 26.5922 16.5602C26.4383 17.1373 26.1353 17.6638 25.7137 18.0868C25.2921 18.5099 24.7667 18.8147 24.1902 18.9707C22.221 19.5004 14.7365 19.5377 13.6993 19.5394H13.4582C12.9337 19.5394 10.7642 19.5292 8.48948 19.4511L8.2009 19.441L8.05321 19.4342L7.76293 19.4223L7.47264 19.4104C5.58836 19.3272 3.79404 19.1931 2.96733 18.969C2.39099 18.8132 1.86573 18.5086 1.44415 18.0859C1.02258 17.6631 0.719504 17.137 0.565286 16.5602C0.376858 15.8523 0.251238 14.8864 0.166361 13.9154L0.15278 13.7372L0.1392 13.5606C0.0554211 12.4103 0.00899682 11.2577 0 10.1044L0 9.89559C0.00339511 9.53062 0.0169756 8.26933 0.108644 6.87733L0.120527 6.70249L0.125619 6.61421L0.1392 6.43767L0.176546 5.9963L0.193521 5.81976C0.275004 4.93873 0.395531 4.08316 0.566984 3.43978C0.720941 2.86269 1.0239 2.33622 1.44549 1.91314C1.86708 1.49006 2.39248 1.18525 2.96903 1.02925C3.79574 0.808571 5.59005 0.672766 7.47434 0.587888L7.76293 0.576005L8.0549 0.56582L8.2009 0.560727L8.49118 0.548845C10.1068 0.496856 11.723 0.467994 13.3394 0.462269H13.667V0.460571ZM10.8644 5.90973V14.0886L17.9211 10.0008L10.8644 5.90973Z" fill="white"/>
</svg>
