<svg width="20" height="23" viewBox="0 0 20 23" fill="none" xmlns="http://www.w3.org/2000/svg">
<path d="M17.4699 4.81616C17.3494 4.69575 17.1084 4.69575 16.988 4.57535C16.506 4.33454 16.1446 3.97333 15.7831 3.61212C14.9398 2.64889 14.5783 1.56525 14.4578 0.963231C14.3374 0.361212 14.4578 0 14.4578 0H10.4819V15.2913C10.4819 15.5321 10.4819 15.6525 10.4819 15.8933C10.4819 15.8933 10.4819 15.8933 10.4819 16.0137C10.3614 17.0974 9.75904 18.181 8.79518 18.6626C8.31325 18.9034 7.71085 19.1442 7.10844 19.1442C5.30121 19.1442 3.73494 17.6994 3.73494 15.7729C3.73494 13.8465 5.18072 12.4016 7.10844 12.4016C7.46988 12.4016 7.83133 12.4016 8.19277 12.522V8.54868C6.14458 8.30787 4.09639 8.90989 2.53012 10.2343C1.80723 10.8364 1.3253 11.5588 0.843374 12.2812C0.722892 12.522 0 13.726 0 15.6525C0 16.7361 0.240964 17.8198 0.481928 18.3014C0.60241 18.5422 0.963856 19.5054 1.56627 20.2279C2.04819 20.8299 2.6506 21.4319 3.25301 21.7931C5.18072 23.1176 7.22892 22.9971 7.22892 22.9971C7.59036 22.9971 8.79518 22.9971 10.241 22.3951C11.8072 21.6727 12.6506 20.5891 12.6506 20.5891C13.253 19.9871 13.6145 19.1442 13.9759 18.4218C14.3374 17.4586 14.4578 16.3749 14.4578 15.8933V7.58545L15.1807 8.06706C15.1807 8.06706 16.1446 8.66908 17.5904 9.03029C18.6747 9.2711 20 9.39151 20 9.39151V5.41818C19.5181 5.53858 18.4337 5.41818 17.4699 4.81616Z" fill="white"/>
</svg>
