<?xml version="1.0" encoding="utf-8"?>
<!-- Generator: Adobe Illustrator 26.5.0, SVG Export Plug-In . SVG Version: 6.00 Build 0)  -->
<svg version="1.1" id="Capa_1" xmlns="http://www.w3.org/2000/svg" xmlns:xlink="http://www.w3.org/1999/xlink" x="0px" y="0px"
	 viewBox="0 0 272.8 80.8" style="enable-background:new 0 0 272.8 80.8;" xml:space="preserve">
<style type="text/css">
	.st0{fill:none;}
	.st1{fill:#F58634;}
	.st2{fill:#F79C58;}
	.st3{fill:#363435;}
</style>
<g>
	<g>
		<path class="st0" d="M61,57c-0.1,0-0.1,0-0.2-0.1C60.9,56.9,61,57,61,57z"/>
		<path class="st0" d="M60.8,56.9L60.8,56.9C60.8,56.8,60.8,56.8,60.8,56.9C60.8,56.8,60.8,56.8,60.8,56.9z"/>
		<path class="st0" d="M111.6,45.4C111.6,45.5,111.5,45.5,111.6,45.4C111.5,45.5,111.6,45.5,111.6,45.4z"/>
		<path class="st0" d="M60.8,56.7L60.8,56.7L60.8,56.7z"/>
		<path class="st0" d="M111.3,45.6L111.3,45.6L111.3,45.6z"/>
		<path class="st0" d="M111.5,45.5C111.4,45.6,111.4,45.6,111.5,45.5C111.4,45.6,111.4,45.6,111.5,45.5z"/>
		<path class="st0" d="M34.8,28.4L34.8,28.4C34.8,28.4,34.8,28.5,34.8,28.4C34.8,28.5,34.8,28.4,34.8,28.4z"/>
		<path class="st0" d="M2.3,20.3L2.3,20.3L2.3,20.3L2.3,20.3z"/>
		<path class="st0" d="M34.6,28.3c0.1,0,0.1,0.1,0.1,0.1C34.7,28.3,34.7,28.3,34.6,28.3z"/>
		<path class="st0" d="M2.4,20.2c0,0,0.1,0,0.2,0C2.5,20.1,2.4,20.1,2.4,20.2z"/>
		<path class="st0" d="M247.5,46.8L247.5,46.8C247.5,46.7,247.5,46.7,247.5,46.8C247.5,46.7,247.5,46.7,247.5,46.8z"/>
		<path class="st0" d="M110.9,33.3L110.9,33.3L110.9,33.3z"/>
		<path class="st0" d="M109.6,33.9c-0.1,0-0.3,0-0.4-0.1C109.3,33.8,109.5,33.8,109.6,33.9z"/>
		<path class="st0" d="M110.1,33.8c-0.1,0-0.3,0.1-0.4,0.1C109.8,33.9,109.9,33.8,110.1,33.8z"/>
		<path class="st0" d="M110.6,33.6c-0.1,0.1-0.3,0.1-0.4,0.2C110.3,33.7,110.5,33.7,110.6,33.6z"/>
		<path class="st0" d="M109.1,33.8c-0.1,0-0.3-0.1-0.4-0.2C108.8,33.6,108.9,33.7,109.1,33.8z"/>
		<path class="st0" d="M105.2,34.7C105.3,34.7,105.3,34.6,105.2,34.7C105.3,34.6,105.3,34.7,105.2,34.7z"/>
		<path class="st0" d="M247.6,46.6L247.6,46.6L247.6,46.6z"/>
		<path class="st0" d="M110.8,33.4c-0.1,0.1-0.2,0.1-0.2,0.2C110.7,33.5,110.8,33.4,110.8,33.4z"/>
		<path class="st0" d="M105.2,34.7c0,0,0,0.1,0,0.2C105.1,34.8,105.1,34.8,105.2,34.7L105.2,34.7z"/>
		<path class="st0" d="M111.3,31.5v0.1C111.3,31.6,111.3,31.6,111.3,31.5z"/>
		<path class="st0" d="M247.8,46.4L247.8,46.4L247.8,46.4z"/>
		<path class="st0" d="M247.6,46.5C247.7,46.5,247.7,46.4,247.6,46.5C247.7,46.4,247.7,46.5,247.6,46.5z"/>
		<path class="st0" d="M111.4,32C111.4,32.1,111.4,32.1,111.4,32C111.4,32.1,111.4,32.1,111.4,32z"/>
		<path class="st0" d="M111.7,45.3L111.7,45.3C111.6,45.3,111.6,45.3,111.7,45.3C111.6,45.3,111.6,45.3,111.7,45.3z"/>
		<path class="st0" d="M111.1,33.1C111.1,33.1,111.1,33,111.1,33.1C111.1,33,111.1,33.1,111.1,33.1L111.1,33.1z"/>
		<path class="st0" d="M111.3,32.5L111.3,32.5C111.3,32.6,111.3,32.6,111.3,32.5z"/>
		<path class="st0" d="M34.8,28.6L34.8,28.6L34.8,28.6z"/>
		<path class="st0" d="M225.7,33.3c0.1,0,0.1,0.1,0.2,0.1C225.8,33.4,225.7,33.4,225.7,33.3z"/>
		<path class="st0" d="M225.2,33.2c0.1,0,0.2,0.1,0.2,0.1C225.4,33.2,225.3,33.2,225.2,33.2z"/>
		<path class="st0" d="M224.8,33.1L224.8,33.1c0.1,0,0.2,0,0.2,0C224.9,33.1,224.9,33.1,224.8,33.1z"/>
		<path class="st0" d="M226,33.6c0.1,0.1,0.1,0.1,0.2,0.2C226.2,33.7,226.1,33.6,226,33.6z"/>
		<path class="st0" d="M226.4,33.9c0.1,0.1,0.1,0.1,0.1,0.2C226.5,34.1,226.4,34,226.4,33.9z"/>
		<path class="st0" d="M226.9,34.8c0,0.1,0,0.2,0.1,0.3C226.9,35,226.9,34.9,226.9,34.8z"/>
		<path class="st0" d="M226.7,34.3c0,0.1,0.1,0.2,0.1,0.2C226.7,34.5,226.7,34.4,226.7,34.3z"/>
		<path class="st0" d="M227,35.3c0,0.1,0,0.2,0,0.3C227,35.5,227,35.4,227,35.3z"/>
		<path class="st0" d="M227.1,38L227.1,38c0,0.1,0,0.1,0,0.2C227.1,38.2,227.1,38.1,227.1,38z"/>
		<path class="st0" d="M222.9,39c-0.1,0-0.1-0.1-0.2-0.1C222.8,38.9,222.9,38.9,222.9,39z"/>
		<path class="st0" d="M222.6,38.8l-0.1-0.1C222.5,38.7,222.6,38.7,222.6,38.8z"/>
		<path class="st0" d="M223.3,39L223.3,39c-0.1,0-0.1,0-0.2,0C223.1,39,223.2,39,223.3,39z"/>
		<path class="st0" d="M222.4,38.5c0-0.1,0-0.1,0-0.2C222.4,38.4,222.4,38.4,222.4,38.5z"/>
		<path class="st0" d="M226.3,39c0.3-0.1,0.6-0.3,0.7-0.6C226.9,38.7,226.6,38.9,226.3,39z"/>
		<path class="st0" d="M45.6,60.6L45.6,60.6L45.6,60.6L45.6,60.6z"/>
		<path class="st0" d="M29.6,22.8C29.6,22.7,29.6,22.7,29.6,22.8C29.6,22.7,29.6,22.7,29.6,22.8z"/>
		<path class="st0" d="M45.6,60.5C45.7,60.5,45.7,60.4,45.6,60.5C45.7,60.4,45.7,60.5,45.6,60.5z"/>
		<path class="st0" d="M29.6,22.7C29.6,22.6,29.6,22.6,29.6,22.7C29.6,22.6,29.6,22.6,29.6,22.7z"/>
		<path class="st0" d="M45.7,60.8L45.7,60.8C45.6,60.7,45.6,60.7,45.7,60.8z"/>
		<path class="st0" d="M29.6,22.6c0,0,0-0.1,0.1-0.1C29.6,22.5,29.6,22.5,29.6,22.6z"/>
		<path class="st0" d="M29.6,22.8L29.6,22.8L29.6,22.8L29.6,22.8z"/>
		<path class="st0" d="M212.9,52.3C213,52.3,213,52.3,212.9,52.3C213,52.3,213,52.3,212.9,52.3z"/>
		<path class="st0" d="M212.9,52.2L212.9,52.2L212.9,52.2z"/>
		<path class="st0" d="M212.8,52.2L212.8,52.2L212.8,52.2z"/>
		<path class="st0" d="M212.7,52.2C212.6,52.2,212.6,52.2,212.7,52.2C212.6,52.2,212.7,52.2,212.7,52.2L212.7,52.2z"/>
		<path class="st0" d="M163.4,32L163.4,32L163.4,32z"/>
		<path class="st0" d="M163.2,31.7c0,0.1,0,0.1,0,0.1C163.2,31.8,163.2,31.8,163.2,31.7z"/>
		<path class="st0" d="M163.7,32C163.6,32,163.6,32,163.7,32C163.6,32,163.6,32,163.7,32z"/>
		<path class="st0" d="M163.3,32C163.3,32,163.3,31.9,163.3,32C163.3,31.9,163.3,32,163.3,32z"/>
		<path class="st0" d="M163.5,32L163.5,32L163.5,32L163.5,32z"/>
		<path class="st0" d="M179.7,45.5C179.6,45.5,179.6,45.5,179.7,45.5C179.6,45.5,179.6,45.5,179.7,45.5z"/>
		<path class="st0" d="M179.8,45.5L179.8,45.5L179.8,45.5L179.8,45.5z"/>
		<path class="st0" d="M142.7,39L142.7,39C142.6,39,142.6,39,142.7,39C142.6,39,142.6,39,142.7,39z"/>
		<path class="st0" d="M180,45.3c0,0.1,0,0.1-0.1,0.1C179.9,45.4,180,45.4,180,45.3z"/>
		<path class="st0" d="M145,33.1L145,33.1c0.2,0,0.4,0,0.6,0.1C145.4,33.1,145.2,33.1,145,33.1z"/>
		<path class="st0" d="M146.8,34.1c0.1,0.1,0.1,0.2,0.2,0.3C146.9,34.3,146.8,34.2,146.8,34.1z"/>
		<path class="st0" d="M142.4,38.9L142.4,38.9L142.4,38.9z"/>
		<path class="st0" d="M142.3,38.8L142.3,38.8L142.3,38.8z"/>
		<path class="st0" d="M142.5,39L142.5,39L142.5,39z"/>
		<path class="st0" d="M143,33.8c0.2-0.2,0.4-0.4,0.7-0.5C143.4,33.4,143.2,33.6,143,33.8z"/>
		<path class="st0" d="M142.3,35.5c0-0.3,0.1-0.6,0.2-0.9C142.4,34.9,142.3,35.2,142.3,35.5z"/>
		<path class="st1" d="M29.6,22.6L29.6,22.6c0,0.1,0,0.1,0,0.1s0,0,0,0.1c0,0,0,0,0,0.1c0,0,0,0,0,0.1l0,0l0.1,0.1
			c4,1.1,8,2.2,12,3.3c7.1,2,16.6-1.4,21.7,5.8c0.2,0.2,0.4,0.4,0.7,0.5l5.8,1.6c0.3,0.1,0.5-0.1,0.6-0.3c1.7-4.7,5.4-5.6,9.8-6.5
			c1-2.4,2.6-4.3,4.6-5.9l-29.1-19h-0.6L29.7,22.4C29.6,22.5,29.6,22.5,29.6,22.6z"/>
		<path class="st1" d="M29.6,22.6L29.6,22.6L29.6,22.6L29.6,22.6z"/>
		<path class="st1" d="M29.6,22.7L29.6,22.7L29.6,22.7z"/>
		<path class="st1" d="M29.8,22.9c0,0-0.1,0-0.1-0.1C29.7,22.9,29.7,22.9,29.8,22.9z"/>
		<path class="st1" d="M29.6,22.8L29.6,22.8L29.6,22.8z"/>
		<path class="st1" d="M93.6,8.6c-6.9,0-13.9,0.1-20.9,0.3c-0.4,0-0.5,0.1-0.1,0.4L87.1,19c3.2-3.2,6.8-5.9,10.8-8.1
			C96.7,8.4,96.3,8.6,93.6,8.6z"/>
		<path class="st2" d="M109.1,33.8L109.1,33.8c0.2,0,0.4,0.1,0.5,0.1l0,0c0.2,0,0.3,0,0.4-0.1h0.1c0.1,0,0.3-0.1,0.4-0.2l0,0
			c0.1-0.1,0.2-0.1,0.2-0.2l0,0l0,0c0.1-0.1,0.1-0.2,0.2-0.2l0,0c0.1-0.1,0.1-0.3,0.2-0.4v-0.1c0-0.1,0.1-0.3,0.1-0.4l0,0
			c0-0.1,0-0.3-0.1-0.4v-0.1c0-0.1-0.1-0.3-0.2-0.4L97.8,10.9c-4,2.2-7.5,5-10.8,8.1l21.6,14.5C108.8,33.6,108.9,33.7,109.1,33.8z"
			/>
		<path class="st2" d="M111.4,32.1c0,0.2,0,0.3-0.1,0.4C111.4,32.4,111.4,32.2,111.4,32.1z"/>
		<path class="st2" d="M111.4,31.6c0,0.1,0.1,0.3,0.1,0.4C111.4,31.9,111.4,31.8,111.4,31.6z"/>
		<path class="st2" d="M111.3,32.6c0,0.1-0.1,0.3-0.2,0.4C111.2,32.9,111.3,32.8,111.3,32.6z"/>
		<path class="st2" d="M109.2,33.8L109.2,33.8C109.1,33.8,109.1,33.8,109.2,33.8z"/>
		<path class="st2" d="M110.2,33.8L110.2,33.8C110.1,33.8,110.1,33.8,110.2,33.8z"/>
		<path class="st2" d="M110.6,33.6L110.6,33.6L110.6,33.6L110.6,33.6z"/>
		<path class="st2" d="M109.6,33.9L109.6,33.9L109.6,33.9z"/>
		<path class="st2" d="M110.9,33.3C110.9,33.3,110.9,33.4,110.9,33.3C110.9,33.4,110.9,33.3,110.9,33.3z"/>
		<path class="st2" d="M111.1,33.1c-0.1,0.1-0.1,0.2-0.2,0.2C111,33.2,111.1,33.1,111.1,33.1z"/>
		<path class="st2" d="M111.1,31.1c0.1,0.1,0.1,0.3,0.2,0.4C111.3,31.4,111.2,31.2,111.1,31.1z"/>
		<path class="st3" d="M191.2,24.4c-0.2,0-0.4-0.2-0.4-0.4v-4.4c0-0.2,0.2-0.4,0.4-0.4h5c0.2,0,0.4,0.2,0.4,0.4
			c0-0.2-0.2-0.4-0.4-0.4h-5c-0.2,0-0.4,0.2-0.4,0.4V24C190.9,24.3,191,24.4,191.2,24.4h5h0.1h-0.1H191.2z"/>
		<path class="st1" d="M34.8,28.4L34.8,28.4c0-0.1-0.1-0.1-0.1-0.1L2.6,20.1c-0.1,0-0.1,0-0.2,0c0,0,0,0,0,0.1c0,0,0,0,0,0.1
			s0,0.1,0,0.2l27.1,36.2c0.2,0.2,0.4,0.3,0.7,0.3h3c0.3,0,0.4-0.1,0.1-0.3c-4.1-3.6-4-7.3-4.1-13.1c-0.1-5.1-0.4-12.4,5.5-14.8
			c0.1,0,0.1-0.1,0.1-0.1l0,0C34.8,28.6,34.8,28.5,34.8,28.4C34.8,28.5,34.8,28.4,34.8,28.4z"/>
		<path class="st1" d="M2.4,20.2L2.4,20.2L2.4,20.2L2.4,20.2z"/>
		<path class="st1" d="M34.8,28.5C34.8,28.5,34.8,28.6,34.8,28.5C34.8,28.6,34.8,28.6,34.8,28.5L34.8,28.5z"/>
		<path class="st1" d="M34.8,28.4L34.8,28.4L34.8,28.4z"/>
		<path class="st1" d="M34.8,28.6l-0.1,0.1C34.7,28.7,34.7,28.7,34.8,28.6z"/>
		<path class="st1" d="M2.3,20.5c0,0,0-0.1,0-0.2C2.3,20.4,2.3,20.4,2.3,20.5z"/>
		<path class="st2" d="M80.4,27.2L93,27.1c0.5,0,0.5-0.1,0.1-0.4L85,21.3C82.9,22.9,81.4,24.9,80.4,27.2z"/>
		<path class="st3" d="M213,52.4L213,52.4L213,52.4L213,52.4z"/>
		<path class="st3" d="M212.8,52.2L212.8,52.2L212.8,52.2z"/>
		<path class="st3" d="M212.9,52.3L212.9,52.3L212.9,52.3z"/>
		<path class="st3" d="M212.7,52.2L212.7,52.2L212.7,52.2z"/>
		<path class="st3" d="M124.7,39c-6.5-4.7,2-8.9,2.8-2.8c0,0.3,0.2,0.4,0.5,0.3l4.6-1c0.3-0.1,0.4-0.3,0.4-0.6
			c-0.9-4.7-3.9-6.8-8.9-6.5c-8.2,0.5-9.8,9.9-3.4,14.3c3.2,2.2,5.3,3.9,6.4,5.3c3.4,4.4-5,6.8-5.3,0.3c0-0.3-0.2-0.4-0.5-0.4
			l-5.1,1c0.1,0.8,0.1,0.9,0,0.4c1.3,5.9,6.3,9,11.8,7.3c2.2-0.7,3.8-2.1,4.7-4.1C135.5,46.3,129.1,42.2,124.7,39z"/>
		<path class="st3" d="M152.9,46.9c0-0.3-0.2-0.4-0.4-0.4h-4.9c-0.3,0-0.4,0.1-0.4,0.4c0,2.5,0.2,7.3-4.2,4.7
			c-0.3-0.2-0.5-0.5-0.5-0.9l-0.2-7c0-0.3,0.1-0.5,0.4-0.5h9.8c0.3,0,0.5-0.2,0.5-0.5c0.1-3.1,0.1-5.8-0.1-8
			c-0.8-8.1-11.7-8.5-15.2-2.6c-0.7,1.2-1,2.8-1.1,4.9c0,3.5,0,7.1,0,10.6c0,2.5,0.4,4.4,1,5.5c2.2,3.9,7.9,4.7,11.6,2.7
			C152.5,54.2,153.3,50.4,152.9,46.9z M142.3,38.7v-3.2c0-0.3,0.1-0.6,0.2-0.9c0.1-0.3,0.3-0.5,0.5-0.8c0.2-0.2,0.4-0.4,0.7-0.5
			s0.6-0.2,0.9-0.2h0.4l0,0c0.2,0,0.4,0,0.6,0.1c0.5,0.1,0.9,0.5,1.2,0.9c0.1,0.1,0.1,0.2,0.2,0.3c0.2,0.3,0.3,0.7,0.3,1.1l0,0v3.2
			c0,0.2-0.2,0.3-0.3,0.3h-4.2l0,0c0,0,0,0-0.1,0c0,0,0,0-0.1,0c0,0,0,0-0.1,0c0,0,0,0-0.1,0c0,0,0,0,0-0.1
			C142.4,38.9,142.4,38.9,142.3,38.7C142.3,38.8,142.3,38.8,142.3,38.7L142.3,38.7L142.3,38.7z"/>
		<path class="st3" d="M247.5,46.7C247.5,46.7,247.5,46.6,247.5,46.7C247.5,46.6,247.5,46.7,247.5,46.7z"/>
		<path class="st3" d="M247.7,46.4L247.7,46.4L247.7,46.4z"/>
		<path class="st3" d="M247.9,46.3C247.9,46.3,247.9,46.4,247.9,46.3C247.9,46.4,247.9,46.3,247.9,46.3L247.9,46.3z"/>
		<path class="st3" d="M247.6,46.5L247.6,46.5L247.6,46.5z"/>
		<path class="st3" d="M169.3,28.7c-2.5,0-4.3,1.1-5.5,3.2l-0.1,0.1l0,0h-0.1l0,0l0,0c0,0,0,0-0.1,0c0,0,0,0-0.1,0l0,0l0,0
			c0,0-0.1,0-0.1-0.1l0,0v-0.1v-2.1c0-0.4-0.2-0.6-0.6-0.6h-4.5c-0.3,0-0.5,0.2-0.5,0.5v26.3c0,0.3,0.1,0.5,0.4,0.5h4.7
			c0.3,0,0.4-0.1,0.4-0.4c0-5.1,0-10.3,0-15.5c0-4.3,1.2-7.2,6.1-6.2c0.3,0.1,0.4-0.1,0.4-0.3v-4.8
			C169.7,28.9,169.5,28.7,169.3,28.7z"/>
		<path class="st3" d="M163.8,31.9l-0.1,0.1C163.7,32,163.7,31.9,163.8,31.9z"/>
		<path class="st3" d="M163.5,32h0.1C163.6,32,163.6,32,163.5,32z"/>
		<path class="st3" d="M163.5,32C163.5,32,163.4,32,163.5,32C163.4,32,163.5,32,163.5,32z"/>
		<path class="st3" d="M163.4,32C163.3,32,163.3,32,163.4,32C163.3,32,163.3,32,163.4,32C163.3,32,163.4,32,163.4,32z"/>
		<path class="st3" d="M163.2,31.9L163.2,31.9L163.2,31.9z"/>
		<path class="st3" d="M171.1,29.5l6.1,26.4c0.1,0.3,0.3,0.5,0.6,0.5h4.1c0.3,0,0.5-0.2,0.6-0.5l5.6-26.3c0.1-0.3-0.1-0.5-0.4-0.5
			h-4.5c-0.3,0-0.5,0.2-0.6,0.5L180,45.3c0,0.1,0,0.1-0.1,0.1l0,0c0,0,0,0-0.1,0l0,0l0,0c0,0,0,0-0.1,0l0,0l-0.1-0.1l-3.3-16
			c0-0.2-0.2-0.3-0.4-0.3l-4.3-0.1C171.2,29,171.1,29.1,171.1,29.5z"/>
		<path class="st3" d="M179.6,45.5l-0.1-0.1C179.5,45.4,179.6,45.4,179.6,45.5z"/>
		<path class="st3" d="M179.9,45.5L179.9,45.5L179.9,45.5z"/>
		<path class="st3" d="M179.8,45.5C179.7,45.5,179.7,45.5,179.8,45.5C179.7,45.5,179.7,45.5,179.8,45.5
			C179.7,45.5,179.7,45.5,179.8,45.5z"/>
		<path class="st1" d="M36.1,39.9h22.2c0.4,0,0.6-0.2,0.5-0.6l-0.6-4.6c0-0.3-0.3-0.5-0.5-0.6c-5.8-1.5-23.9-7.9-22.1,5.3
			C35.7,39.8,35.8,39.9,36.1,39.9z"/>
		<path class="st2" d="M76.8,36l34.3,9.6h0.1c0,0,0,0,0.1,0h0.1c0,0,0,0,0.1,0c0,0,0,0,0.1-0.1c0,0,0,0,0.1-0.1c0,0,0,0,0-0.1
			c0,0,0,0,0-0.1l1.4-5.2c0.1-0.3,0-0.6-0.3-0.7l-7.3-4.7c0,0-0.1,0-0.2,0c0,0,0,0-0.1,0h-0.1c0,0,0,0.1,0,0.2l0.4,2.3
			c0.1,0.3-0.1,0.5-0.4,0.5l-5.4,0.1c-0.3,0-0.4-0.1-0.5-0.4c-0.3-3.7-2.5-5.7-6.6-6c-4.8-0.3-14.9-1.7-16.1,4.1
			C76.5,35.7,76.6,36,76.8,36z"/>
		<path class="st2" d="M111.1,45.6L111.1,45.6C111.2,45.6,111.2,45.6,111.1,45.6L111.1,45.6z"/>
		<path class="st2" d="M111.5,45.5L111.5,45.5L111.5,45.5z"/>
		<path class="st2" d="M111.4,45.6C111.4,45.6,111.3,45.6,111.4,45.6C111.3,45.6,111.4,45.6,111.4,45.6z"/>
		<path class="st2" d="M105.2,34.7L105.2,34.7L105.2,34.7z"/>
		<path class="st2" d="M111.6,45.4L111.6,45.4L111.6,45.4z"/>
		<path class="st2" d="M105.3,34.6L105.3,34.6c0.1,0,0.1,0,0.2,0C105.4,34.6,105.4,34.6,105.3,34.6z"/>
		<path class="st1" d="M222.4,38.3c0,0.1,0,0.1,0,0.2c0,0.1,0.1,0.1,0.1,0.1l0.1,0.1l0.1,0.1c0.1,0,0.1,0.1,0.2,0.1
			c0.1,0,0.1,0,0.2,0c0.1,0,0.1,0,0.2,0h2.9h0.1c0.3-0.1,0.6-0.3,0.7-0.6c0-0.1,0-0.1,0-0.2c0-0.1,0-0.1,0-0.2v-2.1
			c0-0.1,0-0.2,0-0.3s0-0.2,0-0.3s0-0.2-0.1-0.3c0-0.1,0-0.2-0.1-0.3c0-0.1-0.1-0.2-0.1-0.2c0-0.1-0.1-0.2-0.1-0.2
			c0-0.1-0.1-0.1-0.1-0.2c0-0.1-0.1-0.1-0.1-0.2c-0.1-0.1-0.1-0.1-0.2-0.2c-0.1-0.1-0.1-0.1-0.2-0.2c-0.1,0-0.1-0.1-0.2-0.1
			c-0.1,0-0.1-0.1-0.2-0.1c-0.1,0-0.1,0-0.2-0.1c-0.1,0-0.1-0.1-0.2-0.1c-0.1,0-0.1,0-0.2,0c-0.1,0-0.2,0-0.2,0h-0.3
			c-1.2,0-2.2,1.3-2.2,2.9V38C222.3,38.2,222.3,38.2,222.4,38.3z"/>
		<path class="st1" d="M222.8,38.9c-0.1,0-0.1-0.1-0.1-0.1C222.7,38.8,222.7,38.8,222.8,38.9z"/>
		<path class="st1" d="M227.1,35.9c0-0.1,0-0.2,0-0.3C227.1,35.7,227.1,35.8,227.1,35.9L227.1,35.9z"/>
		<path class="st1" d="M223.1,39c-0.1,0-0.1,0-0.2,0C223,39,223,39,223.1,39z"/>
		<path class="st1" d="M227,35.1c0,0.1,0.1,0.2,0.1,0.3C227,35.2,227,35.2,227,35.1z"/>
		<path class="st1" d="M226.2,33.7c0.1,0.1,0.1,0.1,0.2,0.2C226.3,33.9,226.3,33.8,226.2,33.7z"/>
		<path class="st1" d="M227.1,38.2c0,0.1,0,0.1,0,0.2C227.1,38.3,227.1,38.3,227.1,38.2z"/>
		<path class="st1" d="M226.2,39h0.1H226.2L226.2,39z"/>
		<path class="st1" d="M222.3,38.1c0,0.1,0,0.1,0,0.2C222.3,38.2,222.3,38.2,222.3,38.1L222.3,38.1z"/>
		<path class="st1" d="M225,33.1c0.1,0,0.1,0,0.2,0C225.2,33.1,225.1,33.1,225,33.1z"/>
		<path class="st1" d="M225.9,33.5c0.1,0,0.1,0.1,0.2,0.1C226,33.5,225.9,33.5,225.9,33.5z"/>
		<path class="st1" d="M226.8,34.6c0,0.1,0.1,0.2,0.1,0.2C226.9,34.7,226.8,34.6,226.8,34.6z"/>
		<path class="st1" d="M225.5,33.2c0.1,0,0.1,0,0.2,0.1C225.6,33.3,225.5,33.3,225.5,33.2z"/>
		<path class="st1" d="M222.5,38.6l-0.1-0.1L222.5,38.6z"/>
		<path class="st1" d="M226.5,34.1c0,0.1,0.1,0.1,0.1,0.2C226.6,34.3,226.6,34.2,226.5,34.1z"/>
		<path class="st1" d="M69.8,47.7c-0.1-3.3-0.1-6.7-0.1-10.1c0-0.2-0.2-0.5-0.4-0.5l-4-1c-0.3-0.1-0.5,0-0.5,0.4l0.1,7.1
			c0,0.3-0.1,0.4-0.4,0.4H36c-0.2,0-0.3,0.1-0.3,0.3c-1.1,9,2.1,10.1,10,10.5c4.4,0.2,12,0.6,12.9-5.1c0-0.3,0.2-0.4,0.5-0.4h5.4
			c0.3,0,0.5,0.2,0.4,0.5c-0.3,2.9-1.6,5.1-4,6.7l-0.1,0.1l0,0v0.1v0.1l0,0c0,0,0.1,0.1,0.2,0.1l12.4-0.1c0.2,0,0.3-0.1,0.1-0.2
			C71.2,54.5,69.9,51.5,69.8,47.7z"/>
		<path class="st1" d="M60.9,56.9L60.9,56.9L60.9,56.9z"/>
		<path class="st1" d="M60.8,56.7C60.8,56.7,60.8,56.8,60.8,56.7C60.8,56.8,60.8,56.7,60.8,56.7L60.8,56.7z"/>
		<path class="st1" d="M60.8,56.7C60.8,56.6,60.8,56.6,60.8,56.7C60.8,56.5,60.8,56.6,60.8,56.7z"/>
		<path class="st2" d="M105.3,46.2l-28.8-7.3c-0.3-0.1-0.4,0-0.4,0.3c-0.2,3-0.2,6,0.1,9c0.3,4.1,1.6,6,5.8,6.3
			c5.8,0.4,17.9,2.3,17.1-6.9c0-0.3,0.1-0.4,0.4-0.4h5.9C105,46.6,104.9,46.3,105.3,46.2z"/>
		<path class="st2" d="M116.1,49l-10.8-2.7c-0.4,0.1-0.3,0.4,0.1,0.9c0.4,4-1,7.2-4,9.5c-0.2,0.2-0.2,0.3,0.1,0.3l11.6,0.1
			c0.3,0,0.5-0.2,0.6-0.4l2.4-7.2C116.3,49.9,116.3,49.7,116.1,49z"/>
		<path class="st1" d="M70.9,60.4H45.8c-0.1,0-0.1,0-0.1,0.1l0,0c0,0,0,0,0,0.1v0.1l0,0c0,0,0,0.1,0.1,0.1l23.4,17.4h1l4.7-1.6
			C72.5,71.5,71.2,66.1,70.9,60.4z"/>
		<path class="st1" d="M45.6,60.5L45.6,60.5L45.6,60.5L45.6,60.5z"/>
		<path class="st1" d="M45.7,60.4L45.7,60.4C45.8,60.4,45.7,60.4,45.7,60.4z"/>
		<path class="st1" d="M45.6,60.6L45.6,60.6L45.6,60.6z"/>
		<path class="st2" d="M107.5,66.4c-0.3-0.3-0.7-0.5-1.2-0.4c-0.3,0-0.5-0.2-0.6-0.4l-1.2-4.3c-0.1-0.4,0-0.6,0.4-0.7l0.8-0.2H70.9
			c0.3,5.7,1.6,11.1,3.9,16.2L107.5,66.4z"/>
		<path class="st2" d="M104.5,61.3l1.2,4.3c0.1,0.3,0.3,0.4,0.6,0.4c0.4,0,0.8,0.1,1.2,0.4l4.2-1.4c0.3-0.1,0.4-0.3,0.3-0.5
			l-1.2-3.5c-0.1-0.3-0.3-0.5-0.6-0.5l-4.5-0.1l-0.8,0.2C104.6,60.7,104.4,60.9,104.5,61.3z"/>
		<path class="st1" d="M182.1,66.5c-2.3,1.9-4.7,3.2-7.4,4c-0.1,0-0.1,0.1-0.1,0.1s0,0,0,0.1v0.1v0.1l0,0c0,0,0.1,0.1,0.2,0.1
			c20.3,0,40.5,0,60.8,0c5.8,0,9.7-0.2,11.9-0.7c12.8-2.9,21.5-14,22.3-27V41c-0.8-12.4-8.9-23-20.7-26.4c-2.5-0.7-6.2-1.1-11.2-1.1
			c-21,0-42,0-62.9,0c-0.8,0-0.8,0.1-0.1,0.4c7.5,2.8,12.9,7.8,16.1,14.8v27.7l-2.3,3.8c-0.2,0.4-0.5,0.7-0.8,1.1l0,0
			C186.1,63.1,184.2,64.9,182.1,66.5L182.1,66.5z M262,34.8l4.9,3.3c0.2,0.1,0.3,0.3,0.3,0.6l0.1,6.9c0,0.2-0.1,0.4-0.3,0.6l-5,3.4
			c-0.2,0.2-0.5,0.2-0.8,0l-4.9-3.3c-0.2-0.1-0.3-0.3-0.3-0.6v-6.9c0-0.2,0.1-0.4,0.3-0.6l4.9-3.4C261.4,34.7,261.7,34.7,262,34.8z"
			/>
	</g>
	<g>
		<path class="st3" d="M125.8,64.8l1.4,0.3c-0.2,0.6-0.5,1-0.9,1.3s-0.9,0.4-1.5,0.4c-0.8,0-1.4-0.2-1.8-0.7
			c-0.5-0.5-0.8-1.3-0.8-2.3c0-1,0.3-1.7,0.8-2.3c0.4-0.5,1-0.7,1.7-0.7c0.8,0,1.4,0.2,1.8,0.7c0.5,0.6,0.8,1.4,0.8,2.5v0.2h-3.6
			c0,0.5,0.1,0.8,0.3,1.1c0.2,0.2,0.5,0.4,0.8,0.4C125.3,65.6,125.6,65.4,125.8,64.8z M125.9,63.3c0-0.4-0.1-0.8-0.3-1
			c-0.2-0.2-0.5-0.3-0.7-0.3c-0.3,0-0.6,0.1-0.8,0.4c-0.2,0.2-0.3,0.6-0.3,1h2.1V63.3z"/>
		<path class="st3" d="M130.9,60.9v1.2h-1v2.3c0,0.5,0,0.8,0,0.9c0.1,0.1,0.2,0.2,0.4,0.2c0.1,0,0.3,0,0.6-0.1l0.1,1.2
			c-0.3,0.2-0.7,0.2-1.1,0.2c-0.4,0-0.7-0.1-0.9-0.2c-0.2-0.2-0.4-0.4-0.4-0.7c-0.1-0.2-0.1-0.6-0.1-1.3v-2.5h-0.7v-1.2h0.7v-1.1
			l1.4-0.9v2C129.9,60.9,130.9,60.9,130.9,60.9z"/>
		<path class="st3" d="M131.9,60.1v-1.4h1.4v1.4H131.9z M131.9,66.6v-5.7h1.4v5.7H131.9z"/>
		<path class="st3" d="M138.3,68.8V66c-0.2,0.3-0.4,0.5-0.7,0.6s-0.6,0.2-0.9,0.2c-0.6,0-1.1-0.3-1.5-0.8s-0.7-1.3-0.7-2.3
			c0-0.9,0.2-1.7,0.7-2.2c0.4-0.5,1-0.8,1.6-0.8c0.3,0,0.6,0.1,0.9,0.2s0.5,0.4,0.7,0.7v-0.8h1.3v7.9h-1.4V68.8z M138.3,63.7
			c0-0.6-0.1-1-0.3-1.3s-0.5-0.4-0.8-0.4s-0.6,0.1-0.9,0.4c-0.2,0.3-0.3,0.8-0.3,1.4c0,0.6,0.1,1.1,0.3,1.4s0.5,0.4,0.8,0.4
			s0.6-0.2,0.9-0.5C138.2,64.8,138.3,64.3,138.3,63.7z"/>
		<path class="st3" d="M144.6,66.6v-0.9c-0.2,0.3-0.5,0.6-0.8,0.7c-0.3,0.2-0.7,0.3-1,0.3c-0.4,0-0.7-0.1-0.9-0.2
			c-0.3-0.2-0.5-0.4-0.6-0.7c-0.1-0.3-0.2-0.7-0.2-1.3v-3.6h1.4v2.6c0,0.8,0,1.2,0.1,1.4s0.1,0.4,0.3,0.5c0.1,0.1,0.3,0.2,0.5,0.2
			s0.5-0.1,0.7-0.2s0.3-0.3,0.4-0.6c0.1-0.2,0.1-0.7,0.1-1.5v-2.4h1.4v5.7H144.6z"/>
		<path class="st3" d="M150.6,64.8l1.4,0.3c-0.2,0.6-0.5,1-0.9,1.3s-0.9,0.4-1.5,0.4c-0.8,0-1.4-0.2-1.8-0.7
			c-0.5-0.5-0.8-1.3-0.8-2.3c0-1,0.3-1.7,0.8-2.3c0.4-0.5,1-0.7,1.7-0.7c0.8,0,1.4,0.2,1.8,0.7c0.5,0.6,0.8,1.4,0.8,2.5v0.2h-3.6
			c0,0.5,0.1,0.8,0.3,1.1c0.2,0.2,0.5,0.4,0.8,0.4C150.1,65.6,150.4,65.4,150.6,64.8z M150.6,63.3c0-0.4-0.1-0.8-0.3-1
			s-0.5-0.3-0.7-0.3c-0.3,0-0.6,0.1-0.8,0.4c-0.2,0.2-0.3,0.6-0.3,1h2.1V63.3z"/>
		<path class="st3" d="M155.7,60.9v1.2h-1v2.3c0,0.5,0,0.8,0,0.9c0.1,0.1,0.2,0.2,0.4,0.2c0.1,0,0.3,0,0.6-0.1l0.1,1.2
			c-0.3,0.2-0.7,0.2-1.1,0.2c-0.4,0-0.7-0.1-0.9-0.2c-0.2-0.2-0.4-0.4-0.4-0.7c-0.1-0.2-0.1-0.6-0.1-1.3v-2.5h-0.7v-1.2h0.7v-1.1
			l1.4-0.9v2C154.7,60.9,155.7,60.9,155.7,60.9z"/>
		<path class="st3" d="M157.7,62.7l-1.3-0.2c0.2-0.6,0.4-1,0.8-1.3s0.9-0.4,1.6-0.4c0.6,0,1.1,0.1,1.4,0.2c0.3,0.1,0.5,0.3,0.7,0.6
			c0.1,0.3,0.2,0.7,0.2,1.4v1.8c0,0.5,0,0.9,0.1,1.1c0,0.2,0.1,0.5,0.3,0.8h-1.4l-0.2-0.6c-0.2,0.3-0.5,0.4-0.8,0.6
			c-0.3,0.1-0.6,0.2-0.9,0.2c-0.5,0-1-0.2-1.3-0.5s-0.5-0.7-0.5-1.2c0-0.3,0.1-0.6,0.2-0.9c0.1-0.2,0.3-0.4,0.6-0.6
			c0.2-0.1,0.6-0.3,1.2-0.4c0.7-0.1,1.1-0.3,1.4-0.4c0-0.3,0-0.5-0.1-0.6s-0.1-0.2-0.3-0.2s-0.3-0.1-0.6-0.1s-0.5,0.1-0.6,0.2
			C157.9,62.2,157.8,62.4,157.7,62.7z M159.6,63.9c-0.2,0.1-0.5,0.1-0.8,0.2c-0.4,0.1-0.7,0.2-0.9,0.3s-0.2,0.3-0.2,0.5
			s0.1,0.4,0.2,0.6s0.3,0.2,0.6,0.2c0.2,0,0.4-0.1,0.6-0.2c0.2-0.1,0.3-0.3,0.4-0.4s0.1-0.5,0.1-0.9L159.6,63.9L159.6,63.9z"/>
		<path class="st3" d="M167.3,66.6H166v-0.8c-0.2,0.3-0.5,0.6-0.8,0.7s-0.6,0.2-0.9,0.2c-0.6,0-1.1-0.3-1.6-0.8s-0.7-1.3-0.7-2.3
			c0-1,0.2-1.7,0.7-2.2s1-0.8,1.6-0.8c0.3,0,0.6,0.1,0.8,0.2c0.3,0.1,0.5,0.3,0.7,0.6v-2.9h1.4v8.1H167.3z M163.6,63.7
			c0,0.5,0,0.9,0.2,1.2c0.1,0.3,0.2,0.4,0.4,0.6c0.2,0.1,0.4,0.2,0.6,0.2c0.3,0,0.6-0.1,0.8-0.4s0.3-0.7,0.3-1.3
			c0-0.7-0.1-1.1-0.3-1.4c-0.2-0.3-0.5-0.4-0.9-0.4c-0.3,0-0.6,0.1-0.8,0.4C163.7,62.6,163.6,63.1,163.6,63.7z"/>
		<path class="st3" d="M168.4,63.7c0-0.6,0.1-1.1,0.4-1.5c0.3-0.5,0.6-0.8,1-1s0.9-0.3,1.4-0.3c0.9,0,1.5,0.3,2,0.9
			c0.5,0.6,0.7,1.3,0.7,2.1c0,0.6-0.1,1.1-0.4,1.6c-0.3,0.5-0.6,0.8-1,1.1c-0.4,0.2-0.9,0.4-1.4,0.4c-0.8,0-1.5-0.3-2-0.8
			C168.7,65.4,168.4,64.7,168.4,63.7z M169.9,63.8c0,0.6,0.1,1,0.4,1.3c0.3,0.3,0.6,0.4,0.9,0.4c0.4,0,0.7-0.2,0.9-0.5
			c0.3-0.3,0.4-0.7,0.4-1.3c0-0.6-0.1-1-0.4-1.3c-0.3-0.3-0.6-0.5-0.9-0.5c-0.4,0-0.7,0.2-0.9,0.5C170,62.8,169.9,63.2,169.9,63.8z"
			/>
		<path class="st3" d="M176.4,66.6H175v-5.7h1.3v0.8c0.2-0.4,0.4-0.6,0.6-0.8c0.2-0.1,0.4-0.2,0.6-0.2c0.3,0,0.6,0.1,0.9,0.3
			l-0.4,1.3c-0.2-0.2-0.5-0.2-0.7-0.2s-0.4,0.1-0.5,0.2c-0.2,0.1-0.3,0.4-0.3,0.7c-0.1,0.3-0.1,1-0.1,1.9L176.4,66.6L176.4,66.6z"/>
		<path class="st3" d="M180.2,62.7l-1.3-0.2c0.2-0.6,0.4-1,0.8-1.3s0.9-0.4,1.6-0.4c0.6,0,1.1,0.1,1.4,0.2c0.3,0.1,0.5,0.3,0.7,0.6
			c0.1,0.3,0.2,0.7,0.2,1.4v1.8c0,0.5,0,0.9,0.1,1.1c0,0.2,0.1,0.5,0.3,0.8h-1.4l-0.2-0.6c-0.2,0.3-0.5,0.4-0.8,0.6
			c-0.3,0.1-0.6,0.2-0.9,0.2c-0.5,0-1-0.2-1.3-0.5s-0.5-0.7-0.5-1.2c0-0.3,0.1-0.6,0.2-0.9c0.1-0.2,0.3-0.4,0.6-0.6
			c0.2-0.1,0.6-0.3,1.2-0.4c0.7-0.1,1.1-0.3,1.4-0.4c0-0.3,0-0.5-0.1-0.6s-0.1-0.2-0.3-0.2s-0.3-0.1-0.6-0.1s-0.5,0.1-0.6,0.2
			C180.4,62.2,180.3,62.4,180.2,62.7z M182.1,63.9c-0.2,0.1-0.5,0.1-0.8,0.2c-0.4,0.1-0.7,0.2-0.9,0.3s-0.2,0.3-0.2,0.5
			s0.1,0.4,0.2,0.6s0.3,0.2,0.6,0.2c0.2,0,0.4-0.1,0.6-0.2c0.2-0.1,0.3-0.3,0.4-0.4s0.1-0.5,0.1-0.9L182.1,63.9L182.1,63.9z"/>
		<path class="st3" d="M184.4,65l1.4-0.2c0.1,0.6,0.5,0.9,1.1,0.9c0.3,0,0.6-0.1,0.8-0.2s0.3-0.3,0.3-0.4s0-0.2-0.1-0.3
			c-0.1-0.1-0.2-0.1-0.5-0.2c-1.2-0.3-1.9-0.5-2.2-0.8c-0.4-0.3-0.6-0.7-0.6-1.3c0-0.5,0.2-1,0.6-1.3c0.4-0.3,0.9-0.5,1.7-0.5
			c0.7,0,1.2,0.1,1.6,0.4c0.4,0.2,0.6,0.6,0.8,1.2l-1.3,0.3c-0.1-0.5-0.5-0.7-1-0.7c-0.3,0-0.6,0-0.7,0.1c-0.1,0.1-0.2,0.2-0.2,0.3
			s0.1,0.2,0.2,0.3c0.1,0.1,0.6,0.2,1.3,0.4c0.8,0.2,1.3,0.4,1.6,0.7s0.4,0.6,0.4,1.1c0,0.6-0.2,1-0.7,1.4c-0.4,0.4-1,0.5-1.8,0.5
			c-0.7,0-1.3-0.2-1.7-0.5S184.5,65.6,184.4,65z"/>
		<path class="st3" d="M213.8,65l1.4-0.2c0.1,0.6,0.5,0.9,1.1,0.9c0.3,0,0.6-0.1,0.8-0.2s0.3-0.3,0.3-0.4s0-0.2-0.1-0.3
			c-0.1-0.1-0.2-0.1-0.5-0.2c-1.2-0.3-1.9-0.5-2.2-0.8c-0.4-0.3-0.6-0.7-0.6-1.3c0-0.5,0.2-1,0.6-1.3c0.4-0.3,0.9-0.5,1.7-0.5
			c0.7,0,1.2,0.1,1.6,0.4c0.4,0.2,0.6,0.6,0.8,1.2l-1.3,0.3c-0.1-0.5-0.5-0.7-1-0.7c-0.3,0-0.6,0-0.7,0.1c-0.1,0.1-0.2,0.2-0.2,0.3
			s0.1,0.2,0.2,0.3c0.1,0.1,0.6,0.2,1.3,0.4c0.8,0.2,1.3,0.4,1.6,0.7s0.4,0.6,0.4,1.1c0,0.6-0.2,1-0.7,1.4c-0.4,0.4-1,0.5-1.8,0.5
			c-0.7,0-1.3-0.2-1.7-0.5S213.9,65.6,213.8,65z"/>
		<path class="st3" d="M192.8,60.9h1.5l1.3,4.1l1.3-4.1h1.5l-1.9,5.5l-0.4,1.1c-0.2,0.4-0.3,0.7-0.5,0.9c-0.2,0.2-0.4,0.3-0.6,0.4
			c-0.2,0.1-0.5,0.2-0.9,0.2c-0.3,0-0.5,0-0.8-0.1l-0.1-1.2c0.2,0,0.4,0.1,0.6,0.1c0.3,0,0.5-0.1,0.7-0.2c0.2-0.2,0.3-0.4,0.4-0.9
			L192.8,60.9z"/>
		<path class="st3" d="M206.9,62.6l-1.4,0.3c-0.1-0.6-0.4-0.9-1-0.9c-0.4,0-0.6,0.1-0.9,0.4c-0.2,0.3-0.3,0.7-0.3,1.3
			c0,0.7,0.1,1.2,0.3,1.4c0.2,0.3,0.5,0.4,0.9,0.4c0.3,0,0.5-0.1,0.7-0.2c0.2-0.2,0.3-0.4,0.4-0.9l1.4,0.3c-0.3,1.4-1.1,2.1-2.5,2.1
			c-0.9,0-1.5-0.3-2-0.9c-0.4-0.6-0.6-1.3-0.6-2.1c0-1,0.2-1.7,0.7-2.3c0.5-0.5,1.1-0.8,1.9-0.8c0.6,0,1.1,0.1,1.5,0.4
			S206.7,62,206.9,62.6z"/>
		<path class="st3" d="M207.6,63.7c0-0.6,0.1-1.1,0.4-1.5c0.3-0.5,0.6-0.8,1-1s0.9-0.3,1.4-0.3c0.9,0,1.5,0.3,2,0.9
			c0.5,0.6,0.7,1.3,0.7,2.1c0,0.6-0.1,1.1-0.4,1.6c-0.3,0.5-0.6,0.8-1,1.1c-0.4,0.2-0.9,0.4-1.4,0.4c-0.8,0-1.5-0.3-2-0.8
			C207.9,65.4,207.6,64.7,207.6,63.7z M209.1,63.8c0,0.6,0.1,1,0.4,1.3c0.3,0.3,0.6,0.4,0.9,0.4c0.4,0,0.7-0.2,0.9-0.5
			c0.3-0.3,0.4-0.7,0.4-1.3c0-0.6-0.1-1-0.4-1.3c-0.3-0.3-0.6-0.5-0.9-0.5c-0.4,0-0.7,0.2-0.9,0.5C209.2,62.8,209.1,63.2,209.1,63.8
			z"/>
		<path class="st3" d="M223.2,64.8l1.4,0.3c-0.2,0.6-0.5,1-0.9,1.3s-0.9,0.4-1.5,0.4c-0.8,0-1.4-0.2-1.8-0.7
			c-0.5-0.5-0.8-1.3-0.8-2.3c0-1,0.3-1.7,0.8-2.3c0.4-0.5,1-0.7,1.7-0.7c0.8,0,1.4,0.2,1.8,0.7c0.5,0.6,0.8,1.4,0.8,2.5v0.2h-3.6
			c0,0.5,0.1,0.8,0.3,1.1c0.2,0.2,0.5,0.4,0.8,0.4C222.7,65.6,223,65.4,223.2,64.8z M223.2,63.3c0-0.4-0.1-0.8-0.3-1
			s-0.5-0.3-0.7-0.3c-0.3,0-0.6,0.1-0.8,0.4c-0.2,0.2-0.3,0.6-0.3,1h2.1V63.3z"/>
		<path class="st3" d="M230.7,66.6h-1.3v-0.8c-0.2,0.3-0.5,0.6-0.8,0.7s-0.6,0.2-0.9,0.2c-0.6,0-1.1-0.3-1.6-0.8s-0.7-1.3-0.7-2.3
			c0-1,0.2-1.7,0.7-2.2s1-0.8,1.6-0.8c0.3,0,0.6,0.1,0.8,0.2c0.3,0.1,0.5,0.3,0.7,0.6v-2.9h1.4v8.1H230.7z M226.9,63.7
			c0,0.5,0,0.9,0.2,1.2c0.1,0.3,0.2,0.4,0.4,0.6c0.2,0.1,0.4,0.2,0.6,0.2c0.3,0,0.6-0.1,0.8-0.4s0.3-0.7,0.3-1.3
			c0-0.7-0.1-1.1-0.3-1.4c-0.2-0.3-0.5-0.4-0.9-0.4c-0.3,0-0.6,0.1-0.8,0.4C227.1,62.6,226.9,63.1,226.9,63.7z"/>
		<path class="st3" d="M231.8,63.7c0-0.6,0.1-1.1,0.4-1.5c0.3-0.5,0.6-0.8,1-1s0.9-0.3,1.4-0.3c0.9,0,1.5,0.3,2,0.9
			c0.5,0.6,0.7,1.3,0.7,2.1c0,0.6-0.1,1.1-0.4,1.6c-0.3,0.5-0.6,0.8-1,1.1c-0.4,0.2-0.9,0.4-1.4,0.4c-0.8,0-1.5-0.3-2-0.8
			C232.1,65.4,231.8,64.7,231.8,63.7z M233.3,63.8c0,0.6,0.1,1,0.4,1.3c0.3,0.3,0.6,0.4,0.9,0.4c0.4,0,0.7-0.2,0.9-0.5
			c0.3-0.3,0.4-0.7,0.4-1.3c0-0.6-0.1-1-0.4-1.3c-0.3-0.3-0.6-0.5-0.9-0.5c-0.4,0-0.7,0.2-0.9,0.5C233.4,62.8,233.3,63.2,233.3,63.8
			z"/>
		<path class="st3" d="M239.8,66.6h-1.4v-5.7h1.3v0.8c0.2-0.4,0.4-0.6,0.6-0.8c0.2-0.1,0.4-0.2,0.6-0.2c0.3,0,0.6,0.1,0.9,0.3
			l-0.4,1.3c-0.2-0.2-0.5-0.2-0.7-0.2s-0.4,0.1-0.5,0.2c-0.2,0.1-0.3,0.4-0.3,0.7c-0.1,0.3-0.1,1-0.1,1.9L239.8,66.6L239.8,66.6z"/>
		<path class="st3" d="M243.6,62.7l-1.3-0.2c0.2-0.6,0.4-1,0.8-1.3s0.9-0.4,1.6-0.4c0.6,0,1.1,0.1,1.4,0.2c0.3,0.1,0.5,0.3,0.7,0.6
			c0.1,0.3,0.2,0.7,0.2,1.4v1.8c0,0.5,0,0.9,0.1,1.1c0,0.2,0.1,0.5,0.3,0.8H246l-0.2-0.6c-0.2,0.3-0.5,0.4-0.8,0.6
			c-0.3,0.1-0.6,0.2-0.9,0.2c-0.5,0-1-0.2-1.3-0.5s-0.5-0.7-0.5-1.2c0-0.3,0.1-0.6,0.2-0.9c0.1-0.2,0.3-0.4,0.6-0.6
			c0.2-0.1,0.6-0.3,1.2-0.4c0.7-0.1,1.1-0.3,1.4-0.4c0-0.3,0-0.5-0.1-0.6s-0.1-0.2-0.3-0.2S245,62,244.7,62s-0.5,0.1-0.6,0.2
			C243.8,62.2,243.6,62.4,243.6,62.7z M245.5,63.9c-0.2,0.1-0.5,0.1-0.8,0.2c-0.4,0.1-0.7,0.2-0.9,0.3s-0.2,0.3-0.2,0.5
			s0.1,0.4,0.2,0.6s0.3,0.2,0.6,0.2c0.2,0,0.4-0.1,0.6-0.2c0.2-0.1,0.3-0.3,0.4-0.4s0.1-0.5,0.1-0.9L245.5,63.9L245.5,63.9z"/>
		<path class="st3" d="M247.8,65l1.4-0.2c0.1,0.6,0.5,0.9,1.1,0.9c0.3,0,0.6-0.1,0.8-0.2s0.3-0.3,0.3-0.4s0-0.2-0.1-0.3
			c-0.1-0.1-0.2-0.1-0.5-0.2c-1.2-0.3-1.9-0.5-2.2-0.8c-0.4-0.3-0.6-0.7-0.6-1.3c0-0.5,0.2-1,0.6-1.3c0.4-0.3,0.9-0.5,1.7-0.5
			c0.7,0,1.2,0.1,1.6,0.4c0.4,0.2,0.6,0.6,0.8,1.2l-1.3,0.3c-0.1-0.5-0.5-0.7-1-0.7c-0.3,0-0.6,0-0.7,0.1c-0.1,0.1-0.2,0.2-0.2,0.3
			s0.1,0.2,0.2,0.3c0.1,0.1,0.6,0.2,1.3,0.4c0.8,0.2,1.3,0.4,1.6,0.7s0.4,0.6,0.4,1.1c0,0.6-0.2,1-0.7,1.4c-0.4,0.4-1,0.5-1.8,0.5
			c-0.7,0-1.3-0.2-1.7-0.5S247.9,65.6,247.8,65z"/>
	</g>
</g>
<path class="st3" d="M196.6,19.7c0-0.2-0.2-0.4-0.4-0.4h-5c-0.2,0-0.4,0.2-0.4,0.4v4.4c0,0.2,0.2,0.4,0.4,0.4h5h0.1
	c0.1-0.1,0.2-0.2,0.2-0.3L196.6,19.7z"/>
<path class="st3" d="M196.6,55.8V29.5c0-0.3-0.2-0.5-0.5-0.5l-5-0.3L191,56.4l5.2-0.1C196.4,56.3,196.6,56.1,196.6,55.8z"/>
<path class="st3" d="M203.3,33.7c0.1,4.5,0.1,9,0,13.6c0,3.4,0.3,5.8,1.1,7.1c1.5,2.6,4.3,3.4,8.4,2.2c0.2-0.1,0.3-0.2,0.3-0.4v-3.7
	v-0.1c0,0,0,0,0-0.1l0,0l0,0c0,0,0,0-0.1,0c0,0,0,0-0.1,0c0,0,0,0-0.1,0h-0.1c-3.3,1.1-3.7-1.1-3.7-3.7c0-4.9,0-9.8,0-14.7
	c0-0.3,0.2-0.5,0.5-0.5h3.1c0.4,0,0.5-0.2,0.5-0.5v-3.3c0-0.3-0.2-0.5-0.5-0.5h-3.2c-0.3,0-0.5-0.2-0.5-0.5v-6.9
	c0-0.2-0.2-0.3-0.4-0.3h-4.9c-0.3,0-0.4,0.1-0.4,0.4v6.9c0,0.3-0.2,0.5-0.5,0.5h-2.6c-0.2,0-0.4,0.2-0.4,0.4v3.5
	c0,0.3,0.1,0.4,0.4,0.4h2.6C203.2,33.3,203.3,33.4,203.3,33.7z"/>
<path class="st3" d="M232.9,47c0-0.3-0.2-0.5-0.6-0.5h-4.8c-0.2,0-0.4,0.2-0.5,0.4l-0.3,4.2c0,0.2-0.1,0.4-0.3,0.6
	c-1.4,1.2-4,0.8-4.1-1.3c-0.1-2.2-0.1-4.3-0.1-6.2c0-0.6,0.3-0.9,0.9-0.9h9.1c0.3,0,0.4-0.1,0.4-0.4c0.4-4.7,0.4-7.8,0-9.3
	c-2.1-7.1-12-6.9-15.1-1.3c-0.7,1.3-1.1,3.4-1.1,6.2c0,3.5,0,7,0,10.4C216.6,60.4,234.6,59.9,232.9,47z M224.5,33.1h0.3l0,0
	c0.1,0,0.2,0,0.2,0c0.1,0,0.1,0,0.2,0c0.1,0,0.2,0.1,0.2,0.1c0.1,0,0.1,0,0.2,0.1c0.1,0,0.1,0.1,0.2,0.1c0.1,0,0.1,0.1,0.2,0.1
	c0.1,0.1,0.1,0.1,0.2,0.2c0.1,0.1,0.1,0.1,0.2,0.2c0.1,0.1,0.1,0.1,0.1,0.2c0,0.1,0.1,0.1,0.1,0.2c0,0.1,0.1,0.2,0.1,0.2
	c0,0.1,0.1,0.2,0.1,0.2c0,0.1,0,0.2,0.1,0.3c0,0.1,0.1,0.2,0.1,0.3s0,0.2,0,0.3s0,0.2,0,0.3l0,0V38l0,0c0,0.1,0,0.1,0,0.2
	c0,0.1,0,0.1,0,0.2c-0.1,0.3-0.4,0.5-0.7,0.6h-0.1l0,0h-2.9l0,0c-0.1,0-0.1,0-0.2,0c-0.1,0-0.1,0-0.2,0c-0.1,0-0.1-0.1-0.2-0.1
	c-0.1,0-0.1-0.1-0.1-0.1l-0.1-0.1l-0.1-0.1c0-0.1,0-0.1,0-0.2c0-0.1,0-0.1,0-0.2l0,0v-2.1C222.3,34.4,223.2,33.1,224.5,33.1z"/>
<path class="st3" d="M252.9,46.3H248h-0.1h-0.1c0,0,0,0-0.1,0c0,0,0,0-0.1,0c0,0,0,0,0,0.1c0,0,0,0,0,0.1v0.1v0.1
	c0.1,2.2,0.4,5.4-2.2,5.5c-1.6,0-2.5-0.8-2.5-2.4c0-4.5-0.1-9-0.1-13.6c0-2.8,1.2-4.1,4.1-2.7c0.3,0.1,0.4,0.4,0.5,0.7l0.4,3.7
	c0,0.2,0.2,0.4,0.5,0.4h4.6c0.3,0,0.5-0.1,0.5-0.4c0.5-5.8-1.8-9-6.8-9.6c-3.4-0.4-6.7,0.8-8.4,3.7c-2,3.4-1.2,11.3-1.1,15.6
	c0.1,6,2.7,9,7.8,9.3c6.9,0.3,9-4.1,8.6-10.3C253.2,46.5,253.1,46.3,252.9,46.3z"/>
</svg>
