<svg width="127" height="128" viewBox="0 0 127 128" fill="none" xmlns="http://www.w3.org/2000/svg">
<path d="M62.9066 85.5538C75.4047 85.5538 85.5363 75.422 85.5363 62.924C85.5363 50.4259 75.4047 40.2942 62.9066 40.2942C50.4085 40.2942 40.2767 50.4259 40.2767 62.924C40.2767 75.422 50.4085 85.5538 62.9066 85.5538Z" fill="#FF931E"/>
<path d="M125.844 61.2758C122.241 57.4812 118.484 53.5562 114.667 49.6083C113.348 48.2437 111.485 48.1287 110.236 49.3323C108.956 50.5588 108.994 52.345 110.32 53.7632C111.217 54.7214 112.129 55.672 113.042 56.6226C113.663 57.2665 114.284 57.9181 114.897 58.5621C115.065 58.7384 115.196 58.9224 115.341 59.1217C115.403 59.2137 115.472 59.3057 115.548 59.4053L116.445 60.5935H90.6419L90.5499 59.9573C89.7449 54.5145 87.5065 49.6466 83.8882 45.4993L83.5202 45.0777L83.8192 44.6101C90.2125 34.6674 94.0455 24.0424 95.525 12.1219L95.7244 10.5504L98.1621 13.1645C99.2967 14.3834 100.355 15.5179 101.42 16.6525C102.325 17.6184 103.314 17.9557 104.425 17.6874C105.529 17.4191 106.334 16.6985 106.641 15.6942C106.97 14.6287 106.648 13.4328 105.797 12.5052C102.493 8.90989 99.3887 5.59055 96.2993 2.36319C95.755 1.79591 95.1264 1.3053 94.4671 0.784015C94.2295 0.592367 93.9919 0.408384 93.7542 0.216736H92.267C92.0524 0.37772 91.8301 0.538705 91.6078 0.69969C90.9945 1.14431 90.4119 1.56594 89.8982 2.05656C86.7092 5.06926 83.4972 8.15863 80.3848 11.156L79.0433 12.4515C78.0774 13.3791 77.7708 14.4064 78.108 15.5716C78.4377 16.7138 79.1583 17.4114 80.3158 17.6874C81.3967 17.948 82.3396 17.649 83.2825 16.7445L83.4129 16.6218C84.8541 15.2419 86.3489 13.8161 87.9434 12.4669L89.4 11.2327L89.1547 13.1261C87.9051 22.7775 84.6087 31.946 79.3499 40.3708L78.9666 40.9841L78.3457 40.6238C68.334 34.7747 58.583 34.7747 48.533 40.6238L47.912 40.9841L47.5287 40.3785C42.2622 31.9536 38.9965 22.9692 37.5477 12.9038L37.2717 11.0027L38.7512 12.2292C38.9199 12.3672 39.0655 12.4822 39.1882 12.5819C39.4412 12.7812 39.6252 12.9345 39.8015 13.1031C40.2614 13.5401 40.7137 13.9847 41.166 14.4294C42.0092 15.2496 42.8832 16.1005 43.7724 16.8978C45.1063 18.0937 46.8618 18.0937 48.0423 16.8901C49.2382 15.6636 49.1846 13.8314 47.912 12.5359C47.0994 11.7079 46.2408 10.8954 45.4053 10.1134C45.0143 9.73781 44.6157 9.36985 44.2247 8.99422C43.5425 8.33495 42.8602 7.68334 42.1779 7.02407C40.4837 5.39123 38.7359 3.70473 36.9881 2.07955C36.4668 1.5966 35.8842 1.17498 35.2709 0.722686C35.0486 0.561702 34.8339 0.400717 34.6116 0.239733H33.1244C32.8868 0.431381 32.6492 0.62303 32.4115 0.807012C31.7522 1.32829 31.1236 1.81891 30.5793 2.38619C27.7889 5.30691 24.8529 8.4346 21.0813 12.5205C20.2227 13.4481 19.9084 14.6363 20.2304 15.7019C20.5293 16.7061 21.3342 17.4344 22.4381 17.7027C23.5497 17.9787 24.5386 17.6414 25.4432 16.6831C26.4781 15.5869 27.513 14.483 28.6092 13.3025L31.1543 10.5887L31.3536 12.1602C32.8408 24.0807 36.6508 34.675 43.0135 44.5488L43.2741 44.9474L43.0135 45.346C38.0996 53.0196 38.0996 53.0196 36.2675 60.0492L36.1218 60.6012H10.073L12.9171 57.6192C14.1513 56.3159 15.3472 55.0664 16.5354 53.8245C17.4707 52.851 17.7696 51.8774 17.463 50.7658C17.164 49.6696 16.4051 48.88 15.3702 48.6117C14.2893 48.3281 13.1241 48.6884 12.2578 49.5776C8.80049 53.1346 5.36616 56.7222 2.05448 60.2486C1.5102 60.8235 1.04257 61.4751 0.551947 62.165C0.367965 62.418 0.183982 62.671 0 62.924V64.4801C0.0766592 64.6105 0.145659 64.7408 0.222318 64.8788C0.421632 65.2467 0.605612 65.5917 0.843256 65.837C4.26992 69.4553 8.33287 73.7253 12.4495 77.9568C13.584 79.1221 15.4162 79.1604 16.6121 78.0412C17.8463 76.8913 17.8999 75.0668 16.75 73.7943C15.7611 72.698 14.7109 71.6171 13.699 70.5669C13.1624 70.0149 12.6334 69.4553 12.0968 68.9034C11.9205 68.7194 11.7672 68.5277 11.5909 68.2978L10.3337 66.7646H36.2445L36.3365 67.3932C37.149 72.7517 39.1959 77.3359 42.5919 81.4142C43.1208 82.0504 42.7145 83.2157 42.4462 83.645C37.1951 92.0775 33.6917 101.208 32.0205 110.775C31.8519 111.725 31.6986 112.683 31.53 113.703L31.047 116.639L29.1688 114.654C28.6092 114.063 28.1109 113.534 27.6126 112.998C27.352 112.722 27.099 112.446 26.846 112.162C26.3554 111.626 25.8418 111.066 25.3205 110.545C24.6536 109.878 23.8487 109.54 23.0515 109.54C22.3385 109.54 21.6409 109.809 21.0506 110.345C19.7934 111.495 19.7244 113.32 20.882 114.585C24.278 118.287 27.8273 122.09 31.7369 126.206C32.8561 127.387 34.6423 127.463 35.7922 126.382C39.9931 122.45 44.125 118.487 48.0807 114.6C49.2305 113.465 49.2152 111.641 48.0423 110.445C46.8848 109.264 45.1293 109.226 43.8644 110.353C42.9445 111.166 42.0476 112.047 41.1813 112.898C40.7214 113.343 40.2691 113.787 39.8091 114.232C39.6252 114.401 39.4335 114.562 39.2112 114.738L37.655 116.018L37.678 114.408C37.7853 107.739 43.6881 91.5409 47.7127 86.9106L48.1266 86.4277L48.6633 86.765C57.7627 92.4991 69.1313 92.4838 78.3304 86.719L78.959 86.328L79.3499 86.9566C84.6241 95.4121 87.9128 104.573 89.1393 114.178L89.377 116.064L87.9205 114.838C86.6173 113.741 85.3907 112.584 84.2101 111.465L83.3362 110.644C81.8567 109.257 80.0322 109.18 78.798 110.468C77.5485 111.771 77.6865 113.588 79.143 114.991C82.9913 118.701 86.8472 122.404 90.7185 126.091C92.2057 127.509 93.9689 127.448 95.4254 125.923C96.1077 125.21 96.7746 124.497 97.4415 123.776L98.2464 122.91C99.0054 122.097 99.7719 121.285 100.531 120.472C102.279 118.609 104.096 116.685 105.836 114.761C106.664 113.849 106.963 112.691 106.656 111.649C106.357 110.652 105.552 109.924 104.456 109.648C103.298 109.356 102.317 109.694 101.359 110.721L95.7013 116.777L95.5097 115.198C94.7584 109.126 93.4476 103.561 91.4928 98.1719C89.5533 92.8211 86.9622 87.6159 83.8039 82.702L83.4972 82.2344L83.8652 81.8128C87.4451 77.7345 89.6913 72.8897 90.5192 67.4239L90.6112 66.7953H116.744L113.793 69.8846C112.635 71.0958 111.516 72.2687 110.405 73.4416C109.002 74.9211 108.91 76.738 110.175 77.9645C110.765 78.5394 111.485 78.8384 112.252 78.8231C113.111 78.8078 113.977 78.3938 114.682 77.6579C118.454 73.7482 122.187 69.854 125.775 66.0823C127.254 64.5645 127.262 62.763 125.844 61.2758ZM78.4607 78.7694C74.4361 82.7787 69.0929 84.9865 63.4202 84.9865C63.3895 84.9865 63.3665 84.9865 63.3359 84.9865C51.63 84.9405 42.1319 75.3351 42.1549 63.5756C42.1779 51.8544 51.7373 42.3256 63.4585 42.3256C63.4738 42.3256 63.4815 42.3256 63.4892 42.3256C75.2104 42.341 84.7391 51.9157 84.7391 63.6676C84.7391 69.3787 82.5083 74.7448 78.4607 78.7694Z" fill="#4D4D4D"/>
<path d="M71.9447 56.0937C70.7335 55.626 69.6756 55.8637 68.702 56.8142C67.1075 58.3704 65.5283 59.9496 63.8878 61.5824L61.2507 64.2119L60.7294 63.6599C60.4381 63.3533 60.1698 63.0543 59.9015 62.763C59.3419 62.1497 58.813 61.5748 58.2533 61.0382C57.5787 60.3942 56.7585 60.0646 55.9536 60.0646C55.2023 60.0646 54.4741 60.3482 53.8991 60.9155C52.6802 62.1267 52.7109 63.9512 53.9757 65.2621C55.6393 66.9793 57.3564 68.7041 59.0813 70.3829C60.5378 71.8011 62.1859 71.8165 63.5965 70.4366C66.0189 68.0678 68.4413 65.6147 70.7871 63.246L72.9566 61.0535C73.6542 60.3482 73.9455 59.5433 73.8382 58.5927C73.7079 57.3509 73.0869 56.5383 71.9447 56.0937Z" fill="#4D4D4D"/>
</svg>
