<svg width="103" height="124" viewBox="0 0 103 124" fill="none" xmlns="http://www.w3.org/2000/svg">
<path d="M81.8374 24.7524C80.8633 23.8008 79.8968 22.8491 78.8702 21.9575C77.529 20.7885 76.6972 19.3724 76.36 17.6115C76.0603 16.0305 75.6782 14.4644 75.2061 12.9283C74.0821 9.22678 70.7777 6.64917 67.0087 6.34945C58.7364 5.70504 61.3964 6.85148 54.6527 1.94353C51.071 -0.664046 46.8599 -0.634074 43.2782 1.95103C41.9744 2.89515 40.7606 3.98164 39.3818 4.79839C38.3778 5.39034 37.1939 5.78747 36.0474 6.01226C34.7736 6.25953 33.4473 6.22956 32.1361 6.297C26.5912 6.6117 23.4216 9.12937 22.3876 14.5543C21.6683 18.3233 20.1022 21.328 17.15 23.8832C12.4144 27.9744 11.8299 31.8258 14.977 37.3931C16.6929 40.4428 17.1425 44.002 16.5205 47.4413C16.4681 47.7261 16.4306 48.0183 16.3932 48.3105C15.8836 52.5291 18.154 56.5978 22.013 58.3737C22.6873 58.6884 23.3767 58.9806 24.2234 59.3478C23.9911 59.8648 23.8188 60.2844 23.6314 60.689C20.9864 66.3912 18.3489 72.0934 15.6813 77.7807C15.1718 78.8746 14.7372 79.9387 15.5315 81.0476C16.3707 82.224 17.5846 82.1116 18.8134 81.8943C21.3386 81.4448 23.8787 81.0776 26.3814 80.5306C27.4904 80.2908 27.9924 80.6055 28.5019 81.5497C29.7233 83.8051 31.0721 85.9855 32.3459 88.2185C32.9453 89.2675 33.5972 90.1892 34.9759 90.1442C36.3621 90.0992 36.9391 89.1326 37.4486 88.0312C40.1536 82.1941 42.8511 76.3495 45.6235 70.5424C45.8933 69.9729 46.6351 69.2761 47.1821 69.2461C48.7931 69.1712 50.4266 69.3735 52.0451 69.5308C54.4279 69.7631 55.1322 71.7263 55.859 74.7385C56.5559 77.6308 57.9196 80.2908 59.5381 82.786C60.4523 84.2022 60.6021 86.4202 62.7152 86.5475C64.2363 86.6374 64.8882 85.5135 65.5551 84.4195C66.8663 82.2765 68.2376 80.1635 69.5039 77.9905C69.9909 77.1662 70.508 76.9115 71.4521 77.1288C73.9997 77.7207 76.5623 78.2228 79.125 78.7548C80.2864 78.9945 81.4553 79.1519 82.3245 78.0879C83.1862 77.0389 82.8715 75.9374 82.3919 74.8284C80.2564 69.8905 78.1359 64.9526 76.0079 60.0072C75.8205 59.5651 75.6632 59.108 75.4758 58.6434C79.8893 56.5454 82.0922 53.196 81.5377 48.4154C80.6685 40.9074 80.3838 42.9305 83.8456 35.7971C85.7488 31.9232 84.962 27.8095 81.8374 24.7524ZM78.9676 34.7931C77.4765 37.7453 75.7156 40.6301 76.1877 44.1669C76.345 45.3358 76.4499 46.5122 76.6148 47.6736C77.0194 50.5359 75.5133 53.3234 72.8533 54.4548C71.8267 54.8894 70.8227 55.3615 69.8036 55.7961C67.6606 56.6952 65.8323 58.2013 64.5735 60.1495C63.7268 61.4608 62.8875 62.7721 61.9884 64.0459C60.8269 65.6869 58.7514 66.4137 56.8032 65.9042C55.5593 65.582 54.323 65.2073 53.1016 64.7952C50.4341 63.8886 47.5343 63.8886 44.8667 64.7952C43.6229 65.2148 42.3641 65.597 41.0977 65.9192C39.1496 66.4212 37.104 65.6644 35.95 64.0159C35.1183 62.8245 34.3165 61.5957 33.5373 60.3668C32.211 58.2688 30.2628 56.6428 27.9699 55.6912C26.6212 55.1367 25.2799 54.5672 23.9611 53.9603C22.0804 53.0986 21.1587 51.6075 21.1363 49.5918C21.2786 48.333 21.3461 47.1266 21.5634 45.9427C22.1328 42.7507 21.6982 39.746 20.0723 36.9211C19.4953 35.917 18.9933 34.8755 18.5062 33.8265C17.5096 31.6984 17.8543 29.8551 19.5328 28.1842C19.9224 27.7945 20.3195 27.3974 20.7541 27.0602C24.2309 24.3777 26.224 20.841 26.8684 16.51C26.9883 15.7232 27.1906 14.929 27.4604 14.1797C28.0973 12.3963 29.4086 11.4297 31.2744 11.1974C31.5741 11.16 31.8813 11.1375 32.181 11.145C37.3512 11.3623 41.7946 9.71382 45.691 6.25204C48.0138 4.19145 49.8796 4.37878 52.4197 6.28201C52.4347 6.297 52.4572 6.31198 52.4797 6.32697C56.1588 9.77377 60.5197 11.2049 65.5476 11.1675C69.0318 11.145 70.3956 12.3214 70.9501 15.7982C71.7218 20.6087 73.8873 24.4227 77.6788 27.5098C80.5187 29.8476 80.646 31.4811 78.9676 34.7931Z" fill="#4D4D4D"/>
<path d="M71.1224 35.5499C71.0774 47.801 61.1042 57.7368 48.8905 57.6843C36.6768 57.6319 26.8085 47.6362 26.8535 35.37C26.8984 23.1339 36.8866 13.2655 49.1453 13.333C61.2915 13.3929 71.1673 23.3812 71.1224 35.5499ZM66.2894 35.6773C66.4242 25.704 57.9121 17.4916 47.7441 18.211C39.1346 18.8254 32.1885 25.8913 31.7239 34.5008C31.1844 44.4516 39.0222 52.7539 48.8456 52.8438C58.3317 52.9337 66.1545 45.2384 66.2894 35.6773Z" fill="#4D4D4D"/>
<path d="M66.2894 35.6772C66.1545 45.2384 58.3393 52.9337 48.8456 52.8513C39.0222 52.7614 31.192 44.4591 31.724 34.5083C32.1885 25.8913 39.1346 18.8329 47.7441 18.2184C57.9047 17.4916 66.4243 25.704 66.2894 35.6772ZM44.5146 39.1091C43.0609 37.588 41.6972 36.1118 40.2735 34.6956C39.0896 33.5192 37.6659 33.4443 36.6619 34.4184C35.6353 35.4075 35.6653 36.8461 36.8117 38.0301C38.7449 40.0157 40.6931 41.9789 42.6863 43.9046C43.6978 44.8862 45.2939 44.9012 46.3429 43.9645C51.2733 39.5362 56.1738 35.0853 61.0667 30.6119C62.2656 29.5179 62.3406 28.0193 61.3739 27.0078C60.4373 26.0187 59.0511 25.9887 57.8672 27.0153C56.3836 28.3041 54.9524 29.6453 53.4988 30.9641C50.5615 33.6316 47.6167 36.2992 44.5146 39.1091Z" fill="#FF931E"/>
<path d="M44.5146 39.1091C47.6167 36.2992 50.5614 33.6316 53.4987 30.9641C54.9524 29.6453 56.3835 28.2966 57.8672 27.0153C59.0511 25.9887 60.4373 26.0187 61.3739 27.0078C62.3405 28.0268 62.2656 29.518 61.0667 30.6119C56.1737 35.0853 51.2733 39.5362 46.3429 43.9645C45.2938 44.9012 43.6978 44.8787 42.6862 43.9046C40.7006 41.9789 38.7449 40.0157 36.8117 38.0301C35.6653 36.8536 35.6353 35.415 36.6618 34.4184C37.6659 33.4443 39.0896 33.5192 40.2735 34.6957C41.6972 36.1118 43.0609 37.588 44.5146 39.1091Z" fill="#4D4D4D"/>
<path d="M102.716 85.003C101.646 81 97.8363 78.895 93.2882 79.7715C90.5897 80.2892 88.1534 81.4417 85.8069 82.8151C79.7956 86.3212 73.7843 89.8341 67.7592 93.3194C66.9931 93.7611 66.1649 94.0924 65.1228 94.5893C65.4886 93.5747 65.6266 93.278 65.7577 92.643C66.5652 88.7781 63.9978 84.8856 60.1329 84.085C54.5771 82.9256 49.2491 81.0552 43.9487 79.1021C41.0707 78.0392 38.1582 77.218 35.1215 78.1014C33.2443 78.6466 31.374 79.3712 29.6624 80.3099C25.1211 82.8013 20.6696 85.4584 16.1836 88.0465C15.8316 88.2536 15.4589 88.433 15.031 88.6677C14.6721 88.0328 14.3546 87.4599 14.0234 86.894C12.4981 84.2645 9.94452 83.5329 7.30121 84.9891C5.71384 85.8656 4.12648 86.7629 2.55981 87.6739C-0.0144802 89.1715 -0.704642 91.7113 0.751595 94.327C2.03529 96.6459 3.3673 98.9373 4.6648 101.249C4.79593 101.291 4.93396 101.339 5.0858 101.387C6.74218 101.912 8.28814 100.166 7.45995 98.6405C7.45305 98.6267 7.44614 98.6198 7.43924 98.606C6.30048 96.5907 5.16172 94.5755 4.01605 92.5602C3.69168 91.9943 3.56745 91.4214 4.2093 91.0418C5.90709 90.0411 7.62558 89.0818 9.34408 88.1156C9.47521 88.0396 9.63395 88.0258 10.0204 87.9085C10.2896 88.226 10.683 88.5642 10.9245 88.9921C15.0103 96.1835 19.0822 103.382 23.1542 110.587C24.0307 112.133 24.8796 113.7 25.7837 115.225C26.4048 116.274 25.9079 116.854 24.4793 117.371C23.2784 117.799 22.1949 118.483 21.1941 119.276C20.152 120.098 19.5308 120.001 19.027 119.111C17.6605 116.688 16.294 114.273 14.9275 111.857C14.3961 110.918 13.278 110.511 12.2497 110.849C12.2359 110.856 12.2289 110.856 12.2151 110.863C11.2972 111.167 10.8693 112.23 11.3524 113.072C12.8432 115.715 14.3408 118.358 15.8385 120.995C17.3085 123.59 19.869 124.301 22.4709 122.879C24.0997 121.989 25.7147 121.078 27.3158 120.132C29.828 118.648 30.4975 116.129 29.1103 113.555C28.6893 112.775 28.2407 112.009 27.7989 111.222C29.4139 109.952 30.8633 109.386 32.9613 110.007C40.001 112.085 47.1303 113.845 54.2183 115.77C58.5387 116.944 62.5416 116.329 66.3444 113.983C77.3317 107.192 88.3397 100.428 99.3271 93.6437C102.309 91.801 103.627 88.4054 102.716 85.003ZM97.3601 90.4897C86.4004 97.2464 75.42 103.989 64.474 110.774C61.4235 112.665 58.2626 113.051 54.8049 112.099C47.1717 109.987 39.5041 107.999 31.864 105.915C30.6493 105.584 29.621 105.632 28.5788 106.363C27.792 106.916 26.9155 107.337 25.9148 107.902C22.8919 102.568 19.9311 97.3292 16.9289 92.0288C17.1843 91.8424 17.3844 91.6768 17.6053 91.5457C22.0913 88.9438 26.5636 86.335 31.0703 83.7745C32.2436 83.1119 33.4859 82.546 34.742 82.0698C36.84 81.283 38.9519 81.3451 41.0983 82.0629C46.4125 83.8228 51.7475 85.5275 57.0824 87.2253C57.8899 87.4806 58.7526 87.5634 59.567 87.7912C61.3545 88.295 62.4174 89.9031 62.1689 91.6561C61.9135 93.4298 60.5884 94.5548 58.5939 94.3408C56.6407 94.1338 54.7152 93.5471 52.8034 93.0778C50.6708 92.5533 48.5382 92.015 46.4609 91.3248C45.0391 90.8486 43.9349 91.311 43.6312 92.4429C43.3344 93.5333 43.9211 94.4719 45.2531 94.8101C49.9669 96.011 54.6738 97.2671 59.4152 98.323C63.073 99.1374 66.5307 98.4058 69.7814 96.4872C75.7029 92.9812 81.6383 89.4959 87.6358 86.1072C89.4371 85.0858 91.4179 84.3818 93.3503 83.6157C93.9438 83.3811 94.6409 83.3673 95.2896 83.3535C97.2704 83.3121 98.6024 84.1886 99.0786 85.7759C99.6515 87.7015 99.0234 89.4614 97.3601 90.4897Z" fill="#4D4D4D"/>
<path d="M25.9148 107.896C22.8919 102.561 19.9311 97.3223 16.9289 92.0218C17.1843 91.8355 17.3844 91.6699 17.6053 91.5387C22.0913 88.9368 26.5635 86.328 31.0703 83.7675C32.2436 83.105 33.4858 82.539 34.7419 82.0628C36.84 81.2761 38.9519 81.3382 41.0983 82.0559C46.4125 83.8158 51.7475 85.5205 57.0824 87.2183C57.8899 87.4737 58.7526 87.5565 59.567 87.7843C61.3545 88.2881 62.4173 89.8961 62.1689 91.6492C61.9135 93.4229 60.5884 94.5478 58.5939 94.3339C56.6407 94.1268 54.7152 93.5402 52.8034 93.0709C50.6708 92.5464 48.5382 92.008 46.4608 91.3179C45.0391 90.8417 43.9349 91.2972 43.6312 92.429C43.3344 93.5195 43.9211 94.4581 45.2531 94.7963C49.9669 95.9972 54.6737 97.2533 59.4151 98.3092C63.073 99.1236 66.5307 98.392 69.7813 96.4734C75.7029 92.9674 81.6383 89.4821 87.6358 86.0934C89.4371 85.0788 91.4178 84.368 93.3503 83.6019C93.9438 83.3672 94.6409 83.3534 95.2896 83.3396C97.2704 83.2982 98.6024 84.1747 99.0786 85.7621C99.6583 87.7083 99.0303 89.4614 97.3601 90.4897C86.4004 97.2464 75.4199 103.989 64.474 110.773C61.4235 112.665 58.2626 113.051 54.8049 112.099C47.1717 109.987 39.504 107.999 31.864 105.915C30.6493 105.583 29.621 105.632 28.5788 106.363C27.7851 106.902 26.9086 107.323 25.9148 107.896Z" fill="#FF931E"/>
<path d="M10.8348 93.3815C10.8141 92.3876 9.95139 91.5456 8.97137 91.5525C7.92923 91.5594 7.08033 92.4636 7.12864 93.5126C7.17695 94.5271 8.01895 95.2932 9.04729 95.2587C10.0549 95.2242 10.8555 94.3891 10.8348 93.3815Z" fill="#FF931E"/>
<path d="M10.8349 93.3815C10.8556 94.3891 10.0619 95.2242 9.04047 95.2587C8.01213 95.2932 7.17704 94.5271 7.12182 93.5126C7.06661 92.4636 7.92241 91.5594 8.96455 91.5525C9.95148 91.5456 10.8073 92.3876 10.8349 93.3815Z" fill="#4D4D4D"/>
<path d="M9.30951 104.783C10.4207 104.431 11.5456 105.024 11.8976 106.143C12.2427 107.247 11.6423 108.427 10.5587 108.765C9.47515 109.103 8.29498 108.482 7.9499 107.385C7.60482 106.281 8.20526 105.128 9.30951 104.783Z" fill="#4D4D4D"/>
</svg>
