<svg width="115" height="152" viewBox="0 0 115 152" fill="none" xmlns="http://www.w3.org/2000/svg">
<path d="M90.8557 25.3234C89.8592 24.3499 88.8703 23.3763 87.82 22.464C86.4478 21.2682 85.5969 19.8193 85.2519 18.0178C84.9453 16.4003 84.5543 14.7981 84.0714 13.2266C82.9215 9.43965 79.5408 6.80257 75.6849 6.49593C67.2217 5.83667 69.9431 7.00955 63.0438 1.98837C59.3795 -0.679366 55.0712 -0.648703 51.4069 1.99604C50.073 2.96195 48.8312 4.0735 47.4206 4.90909C46.3934 5.5147 45.1822 5.92099 44.0093 6.15097C42.7061 6.40394 41.3492 6.37328 40.0077 6.44227C34.3349 6.76424 31.0922 9.33999 30.0343 14.8901C29.2984 18.7461 27.6962 21.8201 24.6758 24.4342C19.831 28.6198 19.233 32.5601 22.4527 38.2558C24.2082 41.3759 24.6682 45.0172 24.0319 48.5358C23.9782 48.8271 23.9399 49.1261 23.9016 49.4251C23.3803 53.741 25.7031 57.9036 29.651 59.7204C30.341 60.0424 31.0462 60.3414 31.9125 60.717C31.6748 61.2459 31.4985 61.6752 31.3069 62.0892C28.6008 67.923 25.9024 73.7567 23.1733 79.5751C22.652 80.6944 22.2074 81.7829 23.02 82.9175C23.8786 84.121 25.1205 84.006 26.3777 83.7837C28.9611 83.3238 31.5598 82.9482 34.1202 82.3885C35.2548 82.1432 35.7684 82.4652 36.2897 83.4311C37.5392 85.7385 38.9191 87.9693 40.2223 90.2538C40.8356 91.327 41.5025 92.2699 42.9131 92.2239C44.3313 92.1779 44.9215 91.189 45.4428 90.0621C48.2102 84.0904 50.9699 78.111 53.8063 72.1699C54.0823 71.5873 54.8412 70.8743 55.4008 70.8437C57.049 70.767 58.7202 70.974 60.376 71.135C62.8138 71.3726 63.5344 73.3811 64.278 76.4628C64.9909 79.4218 66.3861 82.1432 68.0419 84.696C68.9772 86.1448 69.1305 88.414 71.2923 88.5443C72.8485 88.6363 73.5154 87.4864 74.1977 86.3672C75.5392 84.1747 76.9421 82.0129 78.2376 79.7898C78.7359 78.9465 79.2649 78.6859 80.2308 78.9082C82.8372 79.5138 85.4589 80.0274 88.0807 80.5717C89.2689 80.817 90.4648 80.978 91.354 79.8895C92.2356 78.8162 91.9136 77.6893 91.423 76.5548C89.2382 71.5029 87.0688 66.4511 84.8916 61.3916C84.7 60.9393 84.539 60.4717 84.3474 59.9964C88.8626 57.8499 91.1164 54.4233 90.5491 49.5324C89.6598 41.8512 89.3685 43.921 92.9102 36.623C94.8573 32.6597 94.0524 28.4511 90.8557 25.3234ZM87.9197 35.5958C86.3942 38.6161 84.5927 41.5675 85.0756 45.1858C85.2366 46.3817 85.3439 47.5853 85.5126 48.7735C85.9265 51.7019 84.3857 54.5536 81.6643 55.7111C80.6141 56.1558 79.5868 56.6387 78.5443 57.0833C76.3518 58.0033 74.4813 59.5441 73.1934 61.5372C72.3272 62.8788 71.4686 64.2203 70.5487 65.5235C69.3605 67.2024 67.237 67.9459 65.2439 67.4247C63.9713 67.095 62.7065 66.7117 61.4569 66.2901C58.7279 65.3625 55.7611 65.3625 53.0321 66.2901C51.7595 66.7194 50.4717 67.1104 49.1761 67.44C47.183 67.9536 45.0902 67.1794 43.9096 65.4929C43.0587 64.274 42.2385 63.0168 41.4412 61.7595C40.0843 59.6131 38.0912 57.9496 35.7454 56.976C34.3656 56.4087 32.9934 55.8261 31.6442 55.2052C29.72 54.3236 28.7771 52.7981 28.7541 50.736C28.8998 49.4481 28.9687 48.2139 29.1911 47.0027C29.7737 43.737 29.329 40.6629 27.6655 37.7729C27.0753 36.7457 26.5617 35.6801 26.0634 34.6069C25.0438 32.4297 25.3964 30.5439 27.1136 28.8344C27.5122 28.4358 27.9185 28.0295 28.3631 27.6845C31.9201 24.9401 33.9593 21.3218 34.6185 16.8909C34.7412 16.086 34.9482 15.2734 35.2241 14.5068C35.8757 12.6823 37.2173 11.6934 39.1261 11.4558C39.4327 11.4175 39.747 11.3945 40.0537 11.4021C45.3432 11.6244 49.889 9.93793 53.8753 6.39628C56.2518 4.28815 58.1606 4.4798 60.7593 6.42694C60.7746 6.44227 60.7976 6.4576 60.8206 6.47294C64.5846 9.99926 69.0462 11.4635 74.19 11.4251C77.7547 11.4021 79.1499 12.6057 79.7171 16.1627C80.5067 21.0842 82.7222 24.9861 86.6011 28.1445C89.5065 30.5363 89.6368 32.2074 87.9197 35.5958Z" fill="#4D4D4D"/>
<path d="M79.8934 36.37C79.8474 48.9038 69.6441 59.0688 57.1487 59.0152C44.6532 58.9615 34.5572 48.7352 34.6032 36.186C34.6492 23.6676 44.8679 13.5716 57.4093 13.6406C69.8358 13.7019 79.9394 23.9206 79.8934 36.37ZM74.9489 36.5004C75.0869 26.297 66.3784 17.8952 55.9758 18.6311C47.1676 19.2597 40.0613 26.4887 39.586 35.2968C39.0341 45.4771 47.0526 53.971 57.1027 54.063C66.8077 54.155 74.8109 46.2821 74.9489 36.5004Z" fill="#4D4D4D"/>
<path d="M74.9489 36.5003C74.811 46.2821 66.8154 54.155 57.1027 54.0706C47.0527 53.9786 39.0418 45.4848 39.5861 35.3045C40.0613 26.4886 47.1677 19.2674 55.9758 18.6387C66.3708 17.8952 75.0869 26.297 74.9489 36.5003ZM52.6718 40.0113C51.1846 38.4552 49.7894 36.945 48.3329 35.4961C47.1217 34.2926 45.6651 34.2159 44.6379 35.2125C43.5877 36.2244 43.6183 37.6962 44.7912 38.9074C46.769 40.9389 48.7622 42.9474 50.8013 44.9175C51.8362 45.9218 53.469 45.9371 54.5423 44.9788C59.5864 40.4483 64.6 35.8947 69.6058 31.3182C70.8323 30.199 70.909 28.6658 69.9201 27.6309C68.9619 26.619 67.5437 26.5883 66.3325 27.6385C64.8146 28.9571 63.3504 30.3293 61.8632 31.6785C58.8582 34.4075 55.8455 37.1366 52.6718 40.0113Z" fill="#FF931E"/>
<path d="M52.6718 40.0113C55.8455 37.1366 58.8582 34.4076 61.8632 31.6785C63.3504 30.3293 64.8146 28.9494 66.3324 27.6385C67.5437 26.5883 68.9619 26.619 69.9201 27.6309C70.909 28.6734 70.8323 30.199 69.6058 31.3182C64.5999 35.8947 59.5864 40.4483 54.5423 44.9789C53.469 45.9371 51.8362 45.9141 50.8013 44.9175C48.7698 42.9474 46.769 40.9389 44.7912 38.9074C43.6183 37.7039 43.5877 36.232 44.6379 35.2125C45.6651 34.2159 47.1216 34.2926 48.3329 35.4961C49.7894 36.945 51.1846 38.4552 52.6718 40.0113Z" fill="#4D4D4D"/>
<path d="M114.091 108.491C112.903 104.045 108.671 101.707 103.619 102.68C100.622 103.255 97.916 104.535 95.3096 106.061C88.6326 109.955 81.9556 113.857 75.2632 117.728C74.4123 118.219 73.4924 118.587 72.3348 119.139C72.7411 118.012 72.8944 117.682 73.0401 116.977C73.937 112.684 71.0853 108.361 66.7924 107.471C60.6213 106.184 54.7032 104.106 48.8158 101.937C45.6191 100.756 42.3841 99.8438 39.0111 100.825C36.9259 101.431 34.8485 102.236 32.9473 103.278C27.9032 106.046 22.9586 108.997 17.9758 111.872C17.5848 112.102 17.1709 112.301 16.6956 112.562C16.297 111.856 15.9443 111.22 15.5764 110.591C13.8822 107.671 11.0458 106.858 8.10976 108.476C6.3466 109.449 4.58343 110.446 2.84327 111.458C-0.0161177 113.121 -0.782712 115.942 0.834797 118.848C2.26066 121.423 3.74018 123.968 5.18138 126.537C5.32703 126.583 5.48035 126.636 5.649 126.69C7.48882 127.272 9.20598 125.333 8.28607 123.639C8.27841 123.624 8.27074 123.616 8.26308 123.601C6.9982 121.362 5.73332 119.124 4.46078 116.885C4.10048 116.257 3.96249 115.62 4.67543 115.199C6.56124 114.087 8.47005 113.022 10.3789 111.948C10.5245 111.864 10.7008 111.849 11.1301 111.718C11.4291 112.071 11.8661 112.447 12.1344 112.922C16.6726 120.91 21.1955 128.905 25.7184 136.909C26.6919 138.626 27.6349 140.366 28.6391 142.06C29.329 143.225 28.7771 143.869 27.1902 144.444C25.8564 144.919 24.6528 145.678 23.5413 146.56C22.3837 147.472 21.6938 147.365 21.1342 146.376C19.6163 143.685 18.0984 141.002 16.5806 138.319C15.9903 137.277 14.7484 136.824 13.6062 137.2C13.5909 137.208 13.5832 137.208 13.5679 137.215C12.5483 137.552 12.073 138.733 12.6097 139.668C14.2655 142.604 15.929 145.54 17.5925 148.469C19.2253 151.351 22.0694 152.141 24.9594 150.562C26.7686 149.573 28.5624 148.561 30.3409 147.511C33.1313 145.862 33.8749 143.064 32.3341 140.205C31.8664 139.339 31.3682 138.488 30.8775 137.614C32.6714 136.203 34.2812 135.575 36.6116 136.265C44.4309 138.572 52.3498 140.527 60.2227 142.666C65.0216 143.969 69.4678 143.287 73.6917 140.68C85.8959 133.137 98.123 125.624 110.327 118.089C113.639 116.042 115.103 112.27 114.091 108.491ZM108.142 114.585C95.9689 122.09 83.7724 129.58 71.6142 137.116C68.2259 139.216 64.7149 139.645 60.8743 138.587C52.3958 136.242 43.8789 134.034 35.3928 131.719C34.0436 131.351 32.9013 131.404 31.7438 132.217C30.8699 132.83 29.8963 133.298 28.7847 133.927C25.4271 128.001 22.1384 122.182 18.8037 116.295C19.0874 116.088 19.3097 115.904 19.555 115.758C24.5378 112.868 29.5053 109.971 34.5112 107.126C35.8144 106.391 37.1943 105.762 38.5895 105.233C40.9199 104.359 43.2657 104.428 45.6498 105.225C51.5525 107.18 57.4783 109.074 63.404 110.959C64.301 111.243 65.2592 111.335 66.1638 111.588C68.1492 112.148 69.3298 113.934 69.0538 115.881C68.7702 117.851 67.2983 119.101 65.0829 118.863C62.9134 118.633 60.7746 117.981 58.6512 117.46C56.2824 116.877 53.9136 116.28 51.6062 115.513C50.027 114.984 48.8005 115.498 48.4632 116.755C48.1335 117.966 48.7851 119.009 50.2647 119.384C55.5005 120.718 60.7286 122.113 65.9951 123.286C70.0581 124.191 73.8987 123.378 77.5093 121.247C84.0867 117.353 90.6794 113.481 97.3411 109.718C99.3419 108.583 101.542 107.801 103.688 106.95C104.348 106.689 105.122 106.674 105.843 106.659C108.043 106.613 109.522 107.586 110.051 109.35C110.687 111.488 109.99 113.443 108.142 114.585Z" fill="#4D4D4D"/>
<path d="M28.7847 133.919C25.4271 127.993 22.1384 122.175 18.8037 116.287C19.0873 116.08 19.3097 115.896 19.555 115.751C24.5378 112.861 29.5053 109.963 34.5112 107.119C35.8144 106.383 37.1943 105.754 38.5894 105.225C40.9199 104.351 43.2657 104.42 45.6498 105.218C51.5525 107.172 57.4783 109.066 63.404 110.952C64.3009 111.235 65.2592 111.327 66.1638 111.58C68.1492 112.14 69.3298 113.926 69.0538 115.873C68.7702 117.843 67.2983 119.093 65.0829 118.855C62.9134 118.625 60.7746 117.974 58.6512 117.452C56.2824 116.87 53.9136 116.272 51.6062 115.505C50.027 114.976 48.8005 115.482 48.4632 116.739C48.1335 117.951 48.7851 118.993 50.2646 119.369C55.5005 120.703 60.7286 122.098 65.9951 123.271C70.058 124.175 73.8987 123.363 77.5093 121.232C84.0867 117.337 90.6794 113.466 97.3411 109.702C99.3419 108.575 101.542 107.786 103.688 106.935C104.348 106.674 105.122 106.659 105.843 106.643C108.043 106.597 109.522 107.571 110.051 109.334C110.695 111.496 109.997 113.443 108.142 114.585C95.9689 122.09 83.7724 129.58 71.6142 137.116C68.2259 139.216 64.7149 139.645 60.8743 138.587C52.3958 136.242 43.8789 134.034 35.3928 131.719C34.0436 131.351 32.9013 131.404 31.7438 132.217C30.8622 132.815 29.8886 133.283 28.7847 133.919Z" fill="#FF931E"/>
<path d="M12.0347 117.797C12.0117 116.693 11.0534 115.758 9.96488 115.766C8.80732 115.774 7.86441 116.778 7.91808 117.943C7.97174 119.07 8.90698 119.921 10.0492 119.883C11.1684 119.844 12.0577 118.917 12.0347 117.797Z" fill="#FF931E"/>
<path d="M12.0347 117.797C12.0577 118.917 11.1761 119.844 10.0416 119.883C8.89937 119.921 7.97179 119.07 7.91046 117.943C7.84914 116.778 8.79971 115.774 9.95726 115.766C11.0535 115.758 12.0041 116.693 12.0347 117.797Z" fill="#4D4D4D"/>
<path d="M10.3405 130.461C11.5747 130.071 12.8243 130.73 13.2152 131.972C13.5985 133.198 12.9316 134.509 11.7281 134.885C10.5245 135.26 9.21363 134.57 8.83034 133.352C8.44704 132.125 9.11398 130.845 10.3405 130.461Z" fill="#4D4D4D"/>
</svg>
