<svg width="138" height="139" viewBox="0 0 138 139" fill="none" xmlns="http://www.w3.org/2000/svg">
<path d="M111.571 138.471C108.144 137.482 105.461 135.359 103.092 132.814C102.448 132.124 101.789 131.886 100.869 131.886C85.5064 131.909 70.1439 131.901 54.7814 131.894C54.1144 131.894 53.4245 131.894 52.7806 131.756C51.5234 131.495 50.7491 130.391 50.8027 129.088C50.8564 127.808 51.7533 126.788 53.0259 126.627C53.6008 126.551 54.1911 126.573 54.766 126.573C68.5187 126.573 82.2637 126.573 96.0163 126.573C96.5453 126.573 97.0819 126.573 97.9022 126.573C97.4652 125.899 97.1586 125.385 96.8213 124.902C91.0718 116.577 88.2584 107.37 88.5037 97.236C88.5651 94.7753 89.278 94.0163 91.6928 93.61C93.4866 93.3111 95.2421 92.8281 97.3195 92.3528C93.5326 88.4202 89.485 85.5225 84.8548 83.3224C84.6708 85.1699 84.6095 86.9024 84.2952 88.5965C83.3522 93.794 80.5235 98.018 77.1045 101.882C75.9393 103.192 74.3985 103.093 72.9879 101.728C68.4114 97.3127 63.8578 92.8741 59.2966 88.4432C58.9746 88.1366 58.6527 87.8376 58.2617 87.4696C57.8784 87.8223 57.5181 88.1442 57.1808 88.4739C52.7192 92.8128 48.2653 97.1594 43.7961 101.498C41.9026 103.33 40.4998 103.238 38.8363 101.245C35.6396 97.42 32.9948 93.3111 32.1592 88.2822C31.8986 86.703 31.8296 85.0855 31.6609 83.307C31.1397 83.56 30.6261 83.7977 30.1354 84.0583C20.4994 89.1562 13.9757 97.0444 9.72109 106.933C7.78928 111.426 6.36342 116.079 5.56616 120.908C4.89156 125.025 5.68115 126.244 9.86674 126.405C15.7235 126.635 21.5956 126.528 27.46 126.566C28.1346 126.574 28.8092 126.543 29.4762 126.596C30.8867 126.711 31.9063 127.777 31.9599 129.134C32.0059 130.46 31.0324 131.587 29.6372 131.825C29.4148 131.863 29.1925 131.886 28.9702 131.886C22.4312 131.848 15.8921 131.817 9.35312 131.763C8.77817 131.756 8.19557 131.664 7.62062 131.556C2.14716 130.537 -0.735226 127.164 0.161686 121.675C3.65735 100.203 13.8454 83.7517 35.3329 76.0934C35.5782 76.0091 35.8082 75.8788 36.0842 75.7561C34.7887 74.1999 33.4701 72.7434 32.2896 71.1872C27.5903 64.9778 24.7386 58.1168 25.2446 50.1596C25.3136 49.117 25.0069 48.5114 24.0564 47.9212C18.2303 44.2569 18.5676 35.9393 24.6543 32.7043C25.3289 32.344 25.6049 31.9301 25.7275 31.2095C28.0886 17.5028 35.9155 8.49534 49.0933 4.07977C49.4919 3.94178 49.8982 3.55849 50.1128 3.18286C50.9867 1.61901 52.2899 0.883079 54.0684 0.890745C57.0658 0.906077 60.0708 0.906077 63.0682 0.890745C64.9617 0.883079 66.2879 1.71867 67.1388 3.42817C67.3381 3.83446 67.8364 4.20242 68.2811 4.35574C80.2092 8.57966 87.6528 16.8359 90.4202 29.1857C90.8418 31.0485 91.3401 32.39 93.111 33.6089C98.2088 37.1122 97.6568 44.8165 92.2907 48.0668C91.6698 48.4424 91.2635 48.7721 91.3171 49.5923C91.9074 59.719 87.6528 67.8832 80.9681 75.0662C80.7918 75.2578 80.6155 75.4571 80.3242 75.7868C88.887 78.5542 96.208 83.0924 102.41 90.0147C105.085 87.7916 107.753 85.6988 110.267 83.445C112.253 81.6665 113.372 81.5975 115.281 83.468C120.187 88.2899 125.775 91.9542 132.598 93.4491C132.774 93.4874 132.943 93.5487 133.119 93.564C136.952 93.7634 137.052 95.3732 137.083 98.2326C137.198 110.429 132.552 120.778 124.971 130.023C124.258 130.889 123.514 131.725 122.755 132.545C120.287 135.19 117.55 137.459 113.978 138.471C113.18 138.471 112.375 138.471 111.571 138.471ZM30.58 49.3624C30.58 50.8572 30.5111 52.1987 30.603 53.5326C30.6797 54.7285 30.7717 55.9627 31.1243 57.1049C34.4667 68.0902 41.6036 75.6105 52.2133 79.8727C55.4023 81.1529 58.7523 81.5362 62.0793 80.5243C73.7852 76.9673 81.3744 69.1711 85.2611 57.6799C86.1733 54.9891 86.1426 52.1758 85.9203 49.3624C67.4301 49.3624 49.0856 49.3624 30.58 49.3624ZM93.7932 98.8229C93.9312 100.64 93.9619 102.434 94.2149 104.197C95.7327 114.845 101.084 123.453 108.68 130.774C111.961 133.94 113.61 133.91 116.914 130.774C123.361 124.657 128.091 117.428 130.475 108.789C131.379 105.508 131.709 102.15 131.717 98.7462C124.35 97.1364 118.263 93.4337 112.835 88.5505C103.644 95.6109 102.686 96.1321 93.7932 98.8229ZM58.2234 43.9732C67.6754 43.9732 77.1199 43.9732 86.5719 43.9732C87.1085 43.9732 87.6528 43.9809 88.1818 43.9195C90.2132 43.6972 91.5318 41.9571 91.2098 39.9333C90.9338 38.1854 89.623 37.0126 87.5838 37.0126C68.0127 36.9896 48.4493 36.9972 28.8782 37.0049C28.5716 37.0049 28.2573 37.0662 27.9506 37.1352C26.3791 37.4802 25.3059 38.7834 25.2599 40.3856C25.2062 42.5933 26.7318 43.9655 29.3305 43.9655C38.9589 43.9809 48.595 43.9732 58.2234 43.9732ZM49.7219 9.59156C38.9512 12.8189 31.7299 23.6049 31.247 31.5928C31.454 31.6311 31.6609 31.7001 31.8756 31.7001C36.3908 31.7077 40.9137 31.6847 45.4289 31.7307C46.2569 31.7384 46.4868 31.3091 46.7168 30.6805C49.2006 23.8885 49.6759 16.8205 49.7219 9.59156ZM67.4838 9.85987C67.4071 17.0812 68.0051 24.1645 70.6038 30.9565C70.7418 31.3244 71.4624 31.6694 71.907 31.6771C76.0696 31.7307 80.2322 31.7154 84.3948 31.7077C84.7321 31.7077 85.0617 31.6311 85.3914 31.5928C84.0958 21.0215 75.7783 12.336 67.4838 9.85987ZM55.111 6.27989C55.0267 14.881 54.9194 23.3672 52.037 31.5774C56.5139 31.5774 60.7608 31.5774 65.138 31.5774C62.1943 23.2906 62.11 14.7967 62.0717 6.27989C59.6952 6.27989 57.5028 6.27989 55.111 6.27989ZM52.2133 85.8828C49.1699 84.3573 45.9962 83.0847 43.1905 81.2449C41.389 80.0644 39.8865 80.0644 38.1387 80.8003C37.8167 80.9383 37.4181 81.3906 37.4027 81.7049C37.3414 83.5677 37.1881 85.4612 37.4334 87.2933C37.878 90.628 39.4879 93.4721 41.642 96.1398C45.3063 92.5981 48.8479 89.1485 52.2133 85.8828ZM74.8354 96.1168C78.0244 92.5675 79.5883 88.0522 79.297 83.1384C79.251 82.3718 79.021 81.1299 78.561 80.9613C77.2502 80.4707 75.8933 79.5048 74.3218 80.6776C71.5007 82.7704 68.3424 84.2576 64.9847 85.2925C64.7164 85.3768 64.4634 85.5225 64.1108 85.6835C67.7214 89.1945 71.2478 92.6211 74.8354 96.1168Z" fill="#4D4D4D"/>
<path d="M38.7213 129.203C38.7289 127.716 39.8942 126.589 41.389 126.604C42.8609 126.619 44.0491 127.815 44.0338 129.257C44.0184 130.705 42.8072 131.886 41.343 131.871C39.8635 131.855 38.7059 130.675 38.7213 129.203Z" fill="#4D4D4D"/>
<path d="M30.5801 49.3624C49.0856 49.3624 67.4302 49.3624 85.9127 49.3624C86.135 52.1758 86.158 54.9891 85.2534 57.6799C81.3668 69.1634 73.7775 76.9673 62.0717 80.5243C58.7447 81.5362 55.387 81.1529 52.2056 79.8727C41.6037 75.6181 34.459 68.0979 31.1167 57.1049C30.7717 55.9627 30.6721 54.7285 30.5954 53.5326C30.5188 52.1988 30.5801 50.8572 30.5801 49.3624Z" fill="white"/>
<path d="M93.7932 98.8229C102.686 96.1322 103.644 95.6109 112.835 88.5506C118.263 93.4338 124.357 97.1364 131.717 98.7462C131.709 102.15 131.379 105.508 130.475 108.789C128.091 117.428 123.361 124.649 116.914 130.774C113.61 133.91 111.969 133.94 108.68 130.774C101.084 123.453 95.7327 114.845 94.2149 104.197C93.9619 102.434 93.9312 100.64 93.7932 98.8229ZM111.356 112.545C110.467 111.878 109.669 111.242 108.834 110.659C107.454 109.693 105.936 109.877 105.016 111.081C104.119 112.246 104.342 113.856 105.606 114.875C107.032 116.025 108.489 117.137 109.968 118.218C111.287 119.176 112.598 119.084 113.702 117.888C116.584 114.768 119.451 111.64 122.226 108.428C122.717 107.861 122.954 106.895 122.939 106.113C122.916 105.063 122.18 104.342 121.13 104.028C119.957 103.675 119.029 104.089 118.248 104.948C115.971 107.462 113.694 109.969 111.356 112.545Z" fill="#FF931E"/>
<path d="M58.2234 43.9732C48.595 43.9732 38.9666 43.9809 29.3382 43.9655C26.7394 43.9655 25.2139 42.5857 25.2676 40.3856C25.3059 38.7834 26.3791 37.4802 27.9583 37.1352C28.265 37.0662 28.5793 37.0049 28.8859 37.0049C48.457 36.9972 68.0204 36.9896 87.5915 37.0126C89.6306 37.0126 90.9415 38.1854 91.2175 39.9333C91.5318 41.9571 90.2209 43.6972 88.1895 43.9195C87.6605 43.9809 87.1162 43.9732 86.5796 43.9732C77.1199 43.9809 67.6678 43.9732 58.2234 43.9732Z" fill="#FF931E"/>
<path d="M49.7219 9.59155C49.6759 16.8205 49.2006 23.8885 46.7168 30.6728C46.4868 31.3014 46.2569 31.7307 45.4289 31.7231C40.9137 31.6771 36.3908 31.7001 31.8756 31.6924C31.6609 31.6924 31.454 31.6234 31.247 31.5851C31.7299 23.6049 38.9512 12.8189 49.7219 9.59155Z" fill="#FF931E"/>
<path d="M67.4838 9.85986C75.786 12.336 84.1035 21.0214 85.3991 31.5851C85.0694 31.6234 84.7321 31.7001 84.4025 31.7001C80.2399 31.7077 76.0773 31.7307 71.9147 31.6694C71.4624 31.6617 70.7495 31.3168 70.6115 30.9488C67.9974 24.1645 67.3995 17.0812 67.4838 9.85986Z" fill="#FF931E"/>
<path d="M55.111 6.27991C57.5028 6.27991 59.6952 6.27991 62.0717 6.27991C62.11 14.7967 62.1943 23.2906 65.138 31.5774C60.7608 31.5774 56.5139 31.5774 52.037 31.5774C54.9194 23.3672 55.019 14.8811 55.111 6.27991Z" fill="#FF931E"/>
<path d="M52.2133 85.8828C48.8556 89.1485 45.3063 92.5981 41.6497 96.1474C39.4879 93.4797 37.878 90.6357 37.4411 87.301C37.1958 85.4688 37.3491 83.5753 37.4104 81.7125C37.4181 81.3982 37.8167 80.9459 38.1463 80.8079C39.8865 80.0643 41.389 80.072 43.1982 81.2526C45.9962 83.0847 49.1699 84.3573 52.2133 85.8828Z" fill="#FF931E"/>
<path d="M74.8354 96.1168C71.2478 92.6212 67.7214 89.1945 64.1031 85.6759C64.4558 85.5149 64.7087 85.3692 64.977 85.2849C68.3347 84.2423 71.4931 82.7628 74.3141 80.67C75.8933 79.4971 77.2425 80.463 78.5534 80.9536C79.0134 81.13 79.2433 82.3642 79.2893 83.1308C79.5883 88.0446 78.0244 92.5675 74.8354 96.1168Z" fill="#FF931E"/>
<path d="M111.356 112.545C113.694 109.969 115.971 107.455 118.255 104.956C119.037 104.097 119.965 103.683 121.138 104.036C122.18 104.35 122.924 105.071 122.947 106.121C122.962 106.895 122.724 107.869 122.234 108.436C119.459 111.648 116.592 114.776 113.709 117.896C112.605 119.092 111.295 119.176 109.976 118.225C108.496 117.152 107.04 116.033 105.614 114.883C104.342 113.863 104.127 112.254 105.024 111.088C105.951 109.885 107.462 109.701 108.841 110.667C109.669 111.242 110.467 111.878 111.356 112.545Z" fill="#4D4D4D"/>
</svg>
